# Blender v3.1.2 OBJ File: 'MazeCollision.blend'
# www.blender.org
mtllib All_Top.137.mtl
o All_Top.137_Mesh.150
v 21.519051 0.450809 13.887633
v 21.689114 0.450809 13.887633
v 21.859177 0.450809 13.887632
v 22.029238 0.450809 13.887633
v 22.199314 0.450809 13.887633
v 22.369366 0.450809 13.887633
v 22.539434 0.450809 13.887633
v 22.709501 0.450809 13.887633
v 22.879562 0.450809 13.887633
v 23.049620 0.450809 13.887633
v 21.519051 0.450809 13.837631
v 21.689114 0.450809 13.837631
v 21.859177 0.450809 13.837629
v 22.029238 0.450809 13.837631
v 22.199314 0.450809 13.837631
v 22.369366 0.450809 13.837631
v 22.539434 0.450809 13.837631
v 22.709501 0.450809 13.837631
v 22.879562 0.450809 13.837631
v 23.049620 0.450809 13.837631
vt 385.090942 379.196777
vt 384.738586 379.196777
vt 384.386047 379.196777
vt 384.032776 379.196777
vt 383.680298 379.196777
vt 383.327881 379.196777
vt 382.975464 379.196777
vt 382.622986 379.196777
vt 382.270447 379.196777
vt 381.917236 379.196777
vt 381.917236 379.087616
vt 382.270447 379.087616
vt 382.622986 379.087616
vt 382.975464 379.087616
vt 383.327881 379.087616
vt 383.680298 379.087616
vt 384.032776 379.087616
vt 384.386047 379.087616
vt 384.738586 379.087616
vt 385.090942 379.087616
vn 0.0000 1.0000 0.0000
usemtl (null)
s off
f 1/1/1 2/2/1 3/3/1 4/4/1 5/5/1 6/6/1 7/7/1 8/8/1 9/9/1 10/10/1 20/11/1 19/12/1 18/13/1 17/14/1 16/15/1 15/16/1 14/17/1 13/18/1 12/19/1 11/20/1
