# Blender v3.1.2 OBJ File: 'MazeCollision.blend'
# www.blender.org
mtllib All_Top.193.mtl
o All_Top.193_Mesh.206
v -2.970120 0.450809 15.418206
v -2.970123 0.450809 16.948780
v -2.970120 0.450809 16.438587
v -2.970120 0.450809 15.928398
v -3.020125 0.450809 16.948780
v -3.020123 0.450809 16.438587
v -3.020123 0.450809 15.928398
v -3.020123 0.450809 15.418206
vt 328.133789 -58.670940
vt 327.021240 -58.670940
vt 325.908630 -58.670940
vt 324.795898 -58.670940
vt 324.795898 -58.774643
vt 325.908630 -58.774643
vt 327.021240 -58.774643
vt 328.133789 -58.774643
vn 0.0000 1.0000 0.0000
usemtl (null)
s off
f 2/1/1 3/2/1 4/3/1 1/4/1 8/5/1 7/6/1 6/7/1 5/8/1
