# Blender v3.1.2 OBJ File: 'MazeCollision.blend'
# www.blender.org
mtllib All_Top.156.mtl
o All_Top.156_Mesh.169
v 15.396751 0.450809 12.357059
v 15.396757 0.450809 9.295913
v 15.396757 0.450809 12.016932
v 15.396757 0.450809 11.676805
v 15.396751 0.450809 11.336679
v 15.396761 0.450809 10.996550
v 15.396757 0.450809 10.656423
v 15.396757 0.450809 10.316297
v 15.396757 0.450809 9.976170
v 15.396757 0.450809 9.636040
v 15.346754 0.450809 12.357059
v 15.346754 0.450809 12.016932
v 15.346754 0.450809 11.676805
v 15.346748 0.450809 11.336679
v 15.346758 0.450809 10.996550
v 15.346754 0.450809 10.656423
v 15.346754 0.450809 10.316297
v 15.346754 0.450809 9.976170
v 15.346754 0.450809 9.636040
v 15.346754 0.450809 9.295913
vt 85.725853 -20.945795
vt 84.984138 -20.945795
vt 84.242371 -20.945795
vt 83.500580 -20.945795
vt 82.758781 -20.945805
vt 82.017044 -20.945805
vt 81.275314 -20.945795
vt 80.533455 -20.945805
vt 79.791656 -20.945805
vt 79.049973 -20.945795
vt 79.049973 -21.049547
vt 79.791656 -21.049547
vt 80.533463 -21.049547
vt 81.275314 -21.049547
vt 82.017052 -21.049547
vt 82.758789 -21.049547
vt 83.500580 -21.049547
vt 84.242371 -21.049547
vt 84.984138 -21.049547
vt 85.725853 -21.049547
vn 0.0000 1.0000 -0.0000
usemtl (null)
s off
f 1/1/1 3/2/1 4/3/1 5/4/1 6/5/1 7/6/1 8/7/1 9/8/1 10/9/1 2/10/1 20/11/1 19/12/1 18/13/1 17/14/1 16/15/1 15/16/1 14/17/1 13/18/1 12/19/1 11/20/1
