# Blender v3.1.2 OBJ File: 'MazeCollision.blend'
# www.blender.org
mtllib All_Top.165.mtl
o All_Top.165_Mesh.178
v 9.274464 0.450809 16.948780
v 9.274464 0.450809 18.479351
v 9.274466 0.450809 18.309288
v 9.274464 0.450809 18.139225
v 9.274464 0.450809 17.969162
v 9.274466 0.450809 17.799095
v 9.274464 0.450809 17.629036
v 9.274464 0.450809 17.458969
v 9.274464 0.450809 17.288906
v 9.274466 0.450809 17.118843
v 9.224461 0.450809 18.479351
v 9.224463 0.450809 18.309288
v 9.224461 0.450809 18.139225
v 9.224461 0.450809 17.969162
v 9.224463 0.450809 17.799095
v 9.224461 0.450809 17.629036
v 9.224461 0.450809 17.458969
v 9.224461 0.450809 17.288906
v 9.224463 0.450809 17.118843
v 9.224461 0.450809 16.948780
vt -436.443359 -322.809235
vt -436.814270 -322.809235
vt -437.185120 -322.809235
vt -437.555908 -322.809235
vt -437.926819 -322.809235
vt -438.297668 -322.809235
vt -438.668518 -322.809235
vt -439.039429 -322.809235
vt -439.410339 -322.809235
vt -439.781250 -322.809235
vt -439.781250 -322.913025
vt -439.410339 -322.913025
vt -439.039429 -322.913025
vt -438.668518 -322.913025
vt -438.297668 -322.913025
vt -437.926819 -322.913025
vt -437.555908 -322.913025
vt -437.185120 -322.913025
vt -436.814270 -322.913025
vt -436.443359 -322.913025
vn 0.0000 1.0000 0.0000
usemtl (null)
s off
f 2/1/1 3/2/1 4/3/1 5/4/1 6/5/1 7/6/1 8/7/1 9/8/1 10/9/1 1/10/1 20/11/1 19/12/1 18/13/1 17/14/1 16/15/1 15/16/1 14/17/1 13/18/1 12/19/1 11/20/1
