# Blender v3.1.2 OBJ File: 'MazeCollision.blend'
# www.blender.org
mtllib All_Top.094.mtl
o All_Top.094_Mesh.107
v -10.452921 0.450809 -12.132111
v -10.282858 0.450809 -12.132113
v -10.112799 0.450809 -12.132108
v -9.942732 0.450809 -12.132111
v -9.772667 0.450809 -12.132111
v -9.602606 0.450809 -12.132111
v -9.432539 0.450809 -12.132111
v -9.262476 0.450809 -12.132111
v -9.092413 0.450809 -12.132111
v -10.622988 0.450809 -12.132111
v -10.622988 0.450809 -12.182113
v -10.452921 0.450809 -12.182113
v -10.282858 0.450809 -12.182116
v -10.112799 0.450809 -12.182111
v -9.942732 0.450809 -12.182113
v -9.772667 0.450809 -12.182113
v -9.602606 0.450809 -12.182113
v -9.432539 0.450809 -12.182113
v -9.262476 0.450809 -12.182113
v -9.092413 0.450809 -12.182113
vt 346.029297 36.859062
vt 346.381775 36.859062
vt 346.734680 36.859062
vt 347.087097 36.859062
vt 347.439514 36.859062
vt 347.792419 36.859062
vt 348.144897 36.859062
vt 348.497314 36.859062
vt 348.850342 36.859062
vt 349.202759 36.859062
vt 349.202759 36.968201
vt 348.850342 36.968201
vt 348.497314 36.968201
vt 348.144897 36.968201
vt 347.792419 36.968201
vt 347.439514 36.968201
vt 347.087097 36.968201
vt 346.734680 36.968201
vt 346.381775 36.968201
vt 346.029297 36.968201
vn 0.0000 1.0000 0.0000
usemtl (null)
s off
f 10/1/1 1/2/1 2/3/1 3/4/1 4/5/1 5/6/1 6/7/1 7/8/1 8/9/1 9/10/1 20/11/1 19/12/1 18/13/1 17/14/1 16/15/1 15/16/1 14/17/1 13/18/1 12/19/1 11/20/1
