# Blender v3.1.2 OBJ File: 'MazeCollision.blend'
# www.blender.org
mtllib All_Top.074.mtl
o All_Top.074_Mesh.087
v -6.031268 0.450809 -21.315552
v -6.031268 0.450809 -19.784977
v -6.031266 0.450809 -19.955040
v -6.031268 0.450809 -20.125103
v -6.031269 0.450809 -20.295170
v -6.031267 0.450809 -20.465237
v -6.031268 0.450809 -20.635296
v -6.031268 0.450809 -20.805359
v -6.031268 0.450809 -20.975422
v -6.031268 0.450809 -21.145485
v -6.081271 0.450809 -19.784977
v -6.081269 0.450809 -19.955040
v -6.081271 0.450809 -20.125103
v -6.081272 0.450809 -20.295170
v -6.081270 0.450809 -20.465237
v -6.081271 0.450809 -20.635296
v -6.081271 0.450809 -20.805359
v -6.081271 0.450809 -20.975422
v -6.081271 0.450809 -21.145485
v -6.081271 0.450809 -21.315552
vt 89.295982 -306.242645
vt 89.666840 -306.242645
vt 90.037750 -306.242645
vt 90.408607 -306.242645
vt 90.779465 -306.242645
vt 91.150322 -306.242645
vt 91.521233 -306.242645
vt 91.892044 -306.242645
vt 92.262924 -306.242645
vt 92.633774 -306.242645
vt 92.633774 -306.138885
vt 92.262924 -306.138885
vt 91.892044 -306.138885
vt 91.521233 -306.138885
vt 91.150322 -306.138885
vt 90.779465 -306.138885
vt 90.408607 -306.138885
vt 90.037750 -306.138885
vt 89.666840 -306.138885
vt 89.295982 -306.138885
vn 0.0000 1.0000 -0.0000
usemtl (null)
s off
f 2/1/1 3/2/1 4/3/1 5/4/1 6/5/1 7/6/1 8/7/1 9/8/1 10/9/1 1/10/1 20/11/1 19/12/1 18/13/1 17/14/1 16/15/1 15/16/1 14/17/1 13/18/1 12/19/1 11/20/1
