# Blender v3.1.2 OBJ File: 'MazeCollision.blend'
# www.blender.org
mtllib All_Top.232.mtl
o All_Top.232_Mesh.245
v -18.275852 0.450809 -12.132111
v -18.105787 0.450809 -12.132111
v -17.935726 0.450809 -12.132113
v -17.765663 0.450809 -12.132108
v -17.595596 0.450809 -12.132111
v -17.425535 0.450809 -12.132111
v -17.255470 0.450809 -12.132111
v -17.085407 0.450809 -12.132111
v -16.915342 0.450809 -12.132111
v -16.745279 0.450809 -12.132111
v -18.275852 0.450809 -12.182113
v -18.105787 0.450809 -12.182113
v -17.935726 0.450809 -12.182116
v -17.765663 0.450809 -12.182111
v -17.595596 0.450809 -12.182113
v -17.425535 0.450809 -12.182113
v -17.255470 0.450809 -12.182113
v -17.085407 0.450809 -12.182113
v -16.915342 0.450809 -12.182113
v -16.745279 0.450809 -12.182113
vt -226.094193 -341.349884
vt -225.740784 -341.349945
vt -225.388351 -341.349945
vt -225.035889 -341.349884
vt -224.683487 -341.349884
vt -224.330933 -341.349884
vt -223.978561 -341.349945
vt -223.625153 -341.349884
vt -223.272736 -341.349884
vt -222.920258 -341.349945
vt -222.920258 -341.240723
vt -223.272736 -341.240784
vt -223.625153 -341.240784
vt -223.978561 -341.240723
vt -224.330933 -341.240784
vt -224.683487 -341.240723
vt -225.035889 -341.240784
vt -225.388351 -341.240723
vt -225.740784 -341.240723
vt -226.094193 -341.240784
vn 0.0000 1.0000 -0.0000
usemtl (null)
s off
f 1/1/1 2/2/1 3/3/1 4/4/1 5/5/1 6/6/1 7/7/1 8/8/1 9/9/1 10/10/1 20/11/1 19/12/1 18/13/1 17/14/1 16/15/1 15/16/1 14/17/1 13/18/1 12/19/1 11/20/1
