# Blender v3.1.2 OBJ File: 'MazeCollision.blend'
# www.blender.org
mtllib All_Top.083.mtl
o All_Top.083_Mesh.096
v -22.867573 0.450809 -12.132111
v -22.697506 0.450809 -12.132111
v -22.527443 0.450809 -12.132113
v -22.357380 0.450809 -12.132108
v -22.187317 0.450809 -12.132111
v -22.017252 0.450809 -12.132111
v -21.847189 0.450809 -12.132111
v -21.677124 0.450809 -12.132111
v -21.507063 0.450809 -12.132111
v -21.336998 0.450809 -12.132111
v -22.867573 0.450809 -12.182113
v -22.697506 0.450809 -12.182113
v -22.527443 0.450809 -12.182116
v -22.357380 0.450809 -12.182111
v -22.187317 0.450809 -12.182113
v -22.017252 0.450809 -12.182113
v -21.847189 0.450809 -12.182113
v -21.677124 0.450809 -12.182113
v -21.507063 0.450809 -12.182113
v -21.336998 0.450809 -12.182113
vt 272.300659 -343.968079
vt 272.654114 -343.968079
vt 273.006409 -343.968079
vt 273.358826 -343.968079
vt 273.711243 -343.968079
vt 274.063660 -343.968079
vt 274.416138 -343.968079
vt 274.769653 -343.968079
vt 275.122070 -343.968079
vt 275.474426 -343.968079
vt 275.474487 -343.858948
vt 275.122070 -343.858948
vt 274.769592 -343.858948
vt 274.416138 -343.858948
vt 274.063660 -343.858948
vt 273.711304 -343.858948
vt 273.358887 -343.858948
vt 273.006348 -343.858948
vt 272.654175 -343.858948
vt 272.300598 -343.858948
vn 0.0000 1.0000 0.0000
usemtl (null)
s off
f 1/1/1 2/2/1 3/3/1 4/4/1 5/5/1 6/6/1 7/7/1 8/8/1 9/9/1 10/10/1 20/11/1 19/12/1 18/13/1 17/14/1 16/15/1 15/16/1 14/17/1 13/18/1 12/19/1 11/20/1
