# Blender v3.1.2 OBJ File: 'MazeCollision.blend'
# www.blender.org
mtllib All_Top.132.mtl
o All_Top.132_Mesh.145
v 14.716501 0.450809 7.765339
v 15.566822 0.450809 7.765338
v 16.417139 0.450809 7.765340
v 17.267458 0.450809 7.765339
v 18.117777 0.450809 7.765339
v 18.968094 0.450809 7.765339
v 19.818413 0.450809 7.765338
v 20.668737 0.450809 7.765339
v 21.519051 0.450809 7.765339
v 13.866182 0.450809 7.765339
v 13.866182 0.450809 7.715336
v 14.716501 0.450809 7.715336
v 15.566822 0.450809 7.715336
v 16.417139 0.450809 7.715338
v 17.267458 0.450809 7.715336
v 18.117777 0.450809 7.715336
v 18.968094 0.450809 7.715336
v 19.818413 0.450809 7.715336
v 20.668737 0.450809 7.715336
v 21.519051 0.450809 7.715336
vt -365.851868 131.641800
vt -364.089050 131.641800
vt -362.325806 131.641800
vt -360.562866 131.641800
vt -358.799988 131.641800
vt -357.036804 131.641800
vt -355.273926 131.641800
vt -353.510681 131.641785
vt -351.747803 131.641785
vt -349.984802 131.641785
vt -349.984802 131.750793
vt -351.747803 131.750793
vt -353.510681 131.750793
vt -355.273926 131.750778
vt -357.036804 131.750778
vt -358.799988 131.750778
vt -360.562866 131.750778
vt -362.325806 131.750778
vt -364.089050 131.750778
vt -365.851868 131.750778
vn 0.0000 1.0000 -0.0000
usemtl (null)
s off
f 10/1/1 1/2/1 2/3/1 3/4/1 4/5/1 5/6/1 6/7/1 7/8/1 8/9/1 9/10/1 20/11/1 19/12/1 18/13/1 17/14/1 16/15/1 15/16/1 14/17/1 13/18/1 12/19/1 11/20/1
