# Blender v3.1.2 OBJ File: 'MazeCollision.blend'
# www.blender.org
mtllib All_Top.052.mtl
o All_Top.052_Mesh.065
v 6.213319 0.450809 -19.784977
v 6.723512 0.450809 -19.784977
v 7.233700 0.450809 -19.784985
v 7.743889 0.450809 -19.784977
v 8.254084 0.450809 -19.784981
v 8.764273 0.450809 -19.784981
v 9.274464 0.450809 -19.784981
v 9.784655 0.450809 -19.784977
v 10.294846 0.450809 -19.784977
v 10.805038 0.450809 -19.784977
v 6.213319 0.450809 -19.834976
v 6.723511 0.450809 -19.834976
v 7.233700 0.450809 -19.834988
v 7.743889 0.450809 -19.834976
v 8.254084 0.450809 -19.834984
v 8.764273 0.450809 -19.834984
v 9.274464 0.450809 -19.834984
v 9.784655 0.450809 -19.834976
v 10.294846 0.450809 -19.834976
v 10.805038 0.450809 -19.834976
vt -307.016785 -57.797993
vt -308.074585 -57.797993
vt -309.132385 -57.797993
vt -310.190125 -57.797993
vt -311.247925 -57.797993
vt -312.305786 -57.797993
vt -313.363586 -57.797993
vt -314.421387 -57.797993
vt -315.479126 -57.797993
vt -316.536987 -57.797993
vt -316.536987 -57.907166
vt -315.479126 -57.907166
vt -314.421387 -57.907166
vt -313.363586 -57.907166
vt -312.305786 -57.907166
vt -311.247925 -57.907166
vt -310.190125 -57.907166
vt -309.132385 -57.907166
vt -308.074585 -57.907166
vt -307.016785 -57.907166
vn 0.0000 1.0000 0.0000
usemtl (null)
s off
f 1/1/1 2/2/1 3/3/1 4/4/1 5/5/1 6/6/1 7/7/1 8/8/1 9/9/1 10/10/1 20/11/1 19/12/1 18/13/1 17/14/1 16/15/1 15/16/1 14/17/1 13/18/1 12/19/1 11/20/1
