# Blender v3.1.2 OBJ File: 'MazeCollision.blend'
# www.blender.org
mtllib All_Top.059.mtl
o All_Top.059_Mesh.072
v 4.682747 0.450809 -18.254406
v 4.682751 0.450809 -18.594532
v 4.682747 0.450809 -18.934658
v 4.682747 0.450809 -19.274776
v 4.682749 0.450809 -19.614914
v 4.682747 0.450809 -19.955040
v 4.682747 0.450809 -20.295170
v 4.682747 0.450809 -20.635296
v 4.682747 0.450809 -20.975422
v 4.682747 0.450809 -21.315552
v 4.632744 0.450809 -18.254406
v 4.632748 0.450809 -18.594532
v 4.632744 0.450809 -18.934658
v 4.632744 0.450809 -19.274776
v 4.632746 0.450809 -19.614914
v 4.632744 0.450809 -19.955040
v 4.632744 0.450809 -20.295170
v 4.632744 0.450809 -20.635296
v 4.632744 0.450809 -20.975422
v 4.632744 0.450809 -21.315552
vt 165.697327 226.413422
vt 166.439087 226.413391
vt 167.180847 226.413422
vt 167.922470 226.413391
vt 168.664352 226.413422
vt 169.406067 226.413391
vt 170.147766 226.413391
vt 170.889496 226.413391
vt 171.631699 226.413422
vt 172.373474 226.413391
vt 172.373474 226.517075
vt 171.631699 226.517105
vt 170.889496 226.517075
vt 170.147766 226.517075
vt 169.406067 226.517075
vt 168.664352 226.517075
vt 167.922470 226.517075
vt 167.180847 226.517105
vt 166.439087 226.517075
vt 165.697327 226.517105
vn 0.0000 1.0000 0.0000
usemtl (null)
s off
f 1/1/1 2/2/1 3/3/1 4/4/1 5/5/1 6/6/1 7/7/1 8/8/1 9/9/1 10/10/1 20/11/1 19/12/1 18/13/1 17/14/1 16/15/1 15/16/1 14/17/1 13/18/1 12/19/1 11/20/1
