# Blender v3.1.2 OBJ File: 'MazeCollision.blend'
# www.blender.org
mtllib All_Top.182.mtl
o All_Top.182_Mesh.195
v 1.621600 0.450809 13.887633
v 1.791662 0.450809 13.887633
v 1.961728 0.450809 13.887632
v 2.131787 0.450809 13.887633
v 2.301855 0.450809 13.887633
v 2.471916 0.450809 13.887633
v 2.641982 0.450809 13.887633
v 2.812041 0.450809 13.887633
v 2.982109 0.450809 13.887633
v 3.152170 0.450809 13.887633
v 1.621600 0.450809 13.837631
v 1.791662 0.450809 13.837631
v 1.961728 0.450809 13.837629
v 2.131787 0.450809 13.837631
v 2.301855 0.450809 13.837631
v 2.471916 0.450809 13.837631
v 2.641982 0.450809 13.837631
v 2.812041 0.450809 13.837631
v 2.982109 0.450809 13.837631
v 3.152170 0.450809 13.837631
vt -57.020271 -362.301239
vt -57.372955 -362.301178
vt -57.725403 -362.301239
vt -58.078087 -362.301239
vt -58.430717 -362.301239
vt -58.783192 -362.301239
vt -59.135876 -362.301239
vt -59.488533 -362.301178
vt -59.841213 -362.301239
vt -60.193665 -362.301239
vt -60.193665 -362.410309
vt -59.841213 -362.410370
vt -59.488533 -362.410309
vt -59.135876 -362.410309
vt -58.783192 -362.410309
vt -58.430717 -362.410309
vt -58.078087 -362.410309
vt -57.725403 -362.410309
vt -57.372955 -362.410309
vt -57.020271 -362.410309
vn 0.0000 1.0000 -0.0000
usemtl (null)
s off
f 1/1/1 2/2/1 3/3/1 4/4/1 5/5/1 6/6/1 7/7/1 8/8/1 9/9/1 10/10/1 20/11/1 19/12/1 18/13/1 17/14/1 16/15/1 15/16/1 14/17/1 13/18/1 12/19/1 11/20/1
