# Blender v3.1.2 OBJ File: 'MazeCollision.blend'
# www.blender.org
mtllib All_Top.005.mtl
o All_Top.005_Mesh.018
v 13.866182 0.450809 -19.784977
v 14.546440 0.450809 -19.784977
v 15.226690 0.450809 -19.784985
v 15.906940 0.450809 -19.784977
v 16.587204 0.450809 -19.784981
v 16.927330 0.450809 -19.784977
v 13.866182 0.450809 -19.834976
v 14.546440 0.450809 -19.834976
v 15.226690 0.450809 -19.834988
v 15.906940 0.450809 -19.834976
v 16.587204 0.450809 -19.834984
v 16.927330 0.450809 -19.834984
vt -433.433899 -189.422821
vt -434.844543 -189.422821
vt -436.255310 -189.422821
vt -437.666016 -189.422821
vt -439.075806 -189.422821
vt -439.781616 -189.422821
vt -439.781616 -189.531952
vt -439.075806 -189.531952
vt -437.666016 -189.531952
vt -436.255310 -189.531952
vt -434.844543 -189.531952
vt -433.433899 -189.531952
vn 0.0000 1.0000 -0.0000
usemtl (null)
s off
f 1/1/1 2/2/1 3/3/1 4/4/1 5/5/1 6/6/1 12/7/1 11/8/1 10/9/1 9/10/1 8/11/1 7/12/1
