# Blender v3.1.2 OBJ File: 'MazeCollision.blend'
# www.blender.org
mtllib All_Top.060.mtl
o All_Top.060_Mesh.073
v 3.322236 0.450809 -19.784977
v 3.492302 0.450809 -19.784985
v 3.662363 0.450809 -19.784977
v 3.832429 0.450809 -19.784981
v 4.002486 0.450809 -19.784981
v 4.172552 0.450809 -19.784981
v 4.342618 0.450809 -19.784977
v 4.512683 0.450809 -19.784977
v 4.682747 0.450809 -19.784977
v 3.152170 0.450809 -19.784977
v 3.152170 0.450809 -19.834976
v 3.322235 0.450809 -19.834976
v 3.492302 0.450809 -19.834988
v 3.662364 0.450809 -19.834976
v 3.832428 0.450809 -19.834984
v 4.002486 0.450809 -19.834984
v 4.172553 0.450809 -19.834984
v 4.342618 0.450809 -19.834976
v 4.512683 0.450809 -19.834976
v 4.682747 0.450809 -19.834976
vt 349.860840 113.308327
vt 349.508179 113.308327
vt 349.155701 113.308327
vt 348.803040 113.308327
vt 348.450439 113.308327
vt 348.097900 113.308327
vt 347.745239 113.308327
vt 347.392517 113.308327
vt 347.039917 113.308327
vt 346.687439 113.308327
vt 346.687439 113.199234
vt 347.039917 113.199234
vt 347.392517 113.199234
vt 347.745239 113.199234
vt 348.097900 113.199234
vt 348.450439 113.199234
vt 348.803040 113.199234
vt 349.155701 113.199234
vt 349.508179 113.199234
vt 349.860840 113.199234
vn 0.0000 1.0000 0.0000
usemtl (null)
s off
f 10/1/1 1/2/1 2/3/1 3/4/1 4/5/1 5/6/1 6/7/1 7/8/1 8/9/1 9/10/1 20/11/1 19/12/1 18/13/1 17/14/1 16/15/1 15/16/1 14/17/1 13/18/1 12/19/1 11/20/1
