# Blender v3.1.2 OBJ File: 'MazeCollision.blend'
# www.blender.org
mtllib All_Top.276.mtl
o All_Top.276_Mesh.289
v -19.806427 0.450809 13.887633
v -19.466297 0.450809 13.887633
v -19.126169 0.450809 13.887632
v -18.786043 0.450809 13.887633
v -18.445917 0.450809 13.887633
v -18.105787 0.450809 13.887633
v -17.765661 0.450809 13.887633
v -17.425535 0.450809 13.887633
v -17.085407 0.450809 13.887633
v -16.745279 0.450809 13.887633
v -19.806427 0.450809 13.837631
v -19.466297 0.450809 13.837631
v -19.126169 0.450809 13.837629
v -18.786043 0.450809 13.837631
v -18.445917 0.450809 13.837631
v -18.105787 0.450809 13.837631
v -17.765661 0.450809 13.837631
v -17.425535 0.450809 13.837631
v -17.085407 0.450809 13.837631
v -16.745279 0.450809 13.837631
vt 207.477386 -135.021683
vt 206.772156 -135.021683
vt 206.067230 -135.021683
vt 205.361786 -135.021683
vt 204.656540 -135.021683
vt 203.951614 -135.021683
vt 203.246201 -135.021683
vt 202.540894 -135.021683
vt 201.835983 -135.021683
vt 201.130569 -135.021683
vt 201.130554 -135.130814
vt 201.835968 -135.130814
vt 202.540878 -135.130814
vt 203.246185 -135.130814
vt 203.951599 -135.130814
vt 204.656555 -135.130814
vt 205.361786 -135.130814
vt 206.067230 -135.130814
vt 206.772156 -135.130814
vt 207.477402 -135.130814
vn 0.0000 1.0000 -0.0000
usemtl (null)
s off
f 1/1/1 2/2/1 3/3/1 4/4/1 5/5/1 6/6/1 7/7/1 8/8/1 9/9/1 10/10/1 20/11/1 19/12/1 18/13/1 17/14/1 16/15/1 15/16/1 14/17/1 13/18/1 12/19/1 11/20/1
