# Blender v3.1.2 OBJ File: 'MazeCollision.blend'
# www.blender.org
mtllib All_Top.121.mtl
o All_Top.121_Mesh.134
v 9.274464 0.450809 1.643048
v 9.274464 0.450809 -1.418101
v 9.274466 0.450809 1.302920
v 9.274464 0.450809 0.962791
v 9.274464 0.450809 0.622668
v 9.274466 0.450809 0.282535
v 9.274464 0.450809 -0.057586
v 9.274464 0.450809 -0.397715
v 9.274464 0.450809 -0.737847
v 9.274466 0.450809 -1.077970
v 9.224461 0.450809 1.643047
v 9.224463 0.450809 1.302920
v 9.224461 0.450809 0.962791
v 9.224461 0.450809 0.622668
v 9.224463 0.450809 0.282535
v 9.224461 0.450809 -0.057586
v 9.224461 0.450809 -0.397715
v 9.224461 0.450809 -0.737847
v 9.224463 0.450809 -1.077970
v 9.224461 0.450809 -1.418101
vt 156.896393 -21.049103
vt 157.638153 -21.049103
vt 158.379898 -21.049103
vt 159.121689 -21.049103
vt 159.863342 -21.049103
vt 160.605331 -21.049103
vt 161.347046 -21.049103
vt 162.088776 -21.049114
vt 162.830536 -21.049114
vt 163.572266 -21.049114
vt 163.572266 -20.945477
vt 162.830536 -20.945477
vt 162.088776 -20.945477
vt 161.347031 -20.945477
vt 160.605331 -20.945463
vt 159.863342 -20.945477
vt 159.121674 -20.945477
vt 158.379883 -20.945477
vt 157.638153 -20.945463
vt 156.896393 -20.945477
vn 0.0000 1.0000 0.0000
usemtl (null)
s off
f 1/1/1 3/2/1 4/3/1 5/4/1 6/5/1 7/6/1 8/7/1 9/8/1 10/9/1 2/10/1 20/11/1 19/12/1 18/13/1 17/14/1 16/15/1 15/16/1 14/17/1 13/18/1 12/19/1 11/20/1
