# Blender v3.1.2 OBJ File: 'MazeCollision.blend'
# www.blender.org
mtllib All_Top.288.mtl
o All_Top.288_Mesh.301
v -13.684134 0.450809 13.887633
v -13.173941 0.450809 13.887633
v -12.663750 0.450809 13.887632
v -11.643370 0.450809 13.887633
v -11.133179 0.450809 13.887633
v -10.112795 0.450809 13.887633
v -9.602604 0.450809 13.887633
v -9.092413 0.450809 13.887633
v -12.153559 0.450809 13.887633
v -10.622988 0.450809 13.887633
v -13.684134 0.450809 13.837631
v -13.173941 0.450809 13.837631
v -12.663750 0.450809 13.837629
v -12.153563 0.450809 13.837631
v -11.643370 0.450809 13.837631
v -11.133179 0.450809 13.837631
v -10.622986 0.450809 13.837631
v -10.112795 0.450809 13.837631
v -9.602604 0.450809 13.837631
v -9.092413 0.450809 13.837631
vt 59.777214 -19.199932
vt 58.719406 -19.199932
vt 57.661598 -19.199932
vt 56.603790 -19.199932
vt 55.545990 -19.199932
vt 54.488197 -19.199926
vt 53.430412 -19.199926
vt 52.372589 -19.199926
vt 51.314796 -19.199926
vt 50.256977 -19.199926
vt 50.256981 -19.309065
vt 51.314796 -19.309065
vt 52.372581 -19.309065
vt 53.430412 -19.309065
vt 54.488197 -19.309067
vt 55.545990 -19.309065
vt 56.603790 -19.309065
vt 57.661591 -19.309065
vt 58.719406 -19.309065
vt 59.777206 -19.309065
vn 0.0000 1.0000 0.0000
usemtl (null)
s off
f 1/1/1 2/2/1 3/3/1 9/4/1 4/5/1 5/6/1 10/7/1 6/8/1 7/9/1 8/10/1 20/11/1 19/12/1 18/13/1 17/14/1 16/15/1 15/16/1 14/17/1 13/18/1 12/19/1 11/20/1
