# Blender v3.1.2 OBJ File: 'MazeCollision.blend'
# www.blender.org
mtllib All_Top.233.mtl
o All_Top.233_Mesh.246
v -15.214706 0.450809 -12.132111
v -15.044643 0.450809 -12.132111
v -14.874578 0.450809 -12.132113
v -14.704517 0.450809 -12.132108
v -14.534452 0.450809 -12.132111
v -14.364388 0.450809 -12.132111
v -14.194324 0.450809 -12.132111
v -14.024260 0.450809 -12.132111
v -13.854197 0.450809 -12.132111
v -13.684134 0.450809 -12.132111
v -15.214706 0.450809 -12.182113
v -15.044643 0.450809 -12.182113
v -14.874578 0.450809 -12.182116
v -14.704517 0.450809 -12.182111
v -14.534452 0.450809 -12.182113
v -14.364388 0.450809 -12.182113
v -14.194324 0.450809 -12.182113
v -14.024260 0.450809 -12.182113
v -13.854197 0.450809 -12.182113
v -13.684134 0.450809 -12.182113
vt -96.156319 -341.355316
vt -95.803947 -341.355316
vt -95.451004 -341.355316
vt -95.098557 -341.355255
vt -94.746101 -341.355255
vt -94.393211 -341.355255
vt -94.040741 -341.355255
vt -93.688316 -341.355255
vt -93.335388 -341.355255
vt -92.982925 -341.355255
vt -92.982925 -341.246124
vt -93.335388 -341.246124
vt -93.688316 -341.246185
vt -94.040741 -341.246185
vt -94.393211 -341.246124
vt -94.746101 -341.246124
vt -95.098557 -341.246124
vt -95.451004 -341.246185
vt -95.803947 -341.246124
vt -96.156319 -341.246185
vn 0.0000 1.0000 -0.0000
usemtl (null)
s off
f 1/1/1 2/2/1 3/3/1 4/4/1 5/5/1 6/6/1 7/7/1 8/8/1 9/9/1 10/10/1 20/11/1 19/12/1 18/13/1 17/14/1 16/15/1 15/16/1 14/17/1 13/18/1 12/19/1 11/20/1
