# Blender v3.1.2 OBJ File: 'MazeCollision.blend'
# www.blender.org
mtllib All_Top.180.mtl
o All_Top.180_Mesh.193
v 4.682747 0.450809 13.887633
v 4.682751 0.450809 13.717568
v 4.682747 0.450809 13.547505
v 4.682747 0.450809 13.377442
v 4.682749 0.450809 13.207376
v 4.682747 0.450809 13.037314
v 4.682747 0.450809 12.867252
v 4.682747 0.450809 12.697186
v 4.682747 0.450809 12.527122
v 4.682747 0.450809 12.357059
v 4.632744 0.450809 13.887632
v 4.632748 0.450809 13.717568
v 4.632744 0.450809 13.547507
v 4.632744 0.450809 13.377442
v 4.632746 0.450809 13.207376
v 4.632744 0.450809 13.037314
v 4.632744 0.450809 12.867252
v 4.632744 0.450809 12.697186
v 4.632744 0.450809 12.527122
v 4.632744 0.450809 12.357059
vt -96.156319 -304.497101
vt -95.785477 -304.497101
vt -95.414627 -304.497101
vt -95.043762 -304.497040
vt -94.672913 -304.497101
vt -94.302048 -304.497040
vt -93.931168 -304.497101
vt -93.560287 -304.497101
vt -93.189438 -304.497040
vt -92.818542 -304.497101
vt -92.818542 -304.393402
vt -93.189438 -304.393402
vt -93.560287 -304.393402
vt -93.931168 -304.393402
vt -94.302048 -304.393402
vt -94.672913 -304.393402
vt -95.043762 -304.393402
vt -95.414627 -304.393402
vt -95.785477 -304.393402
vt -96.156319 -304.393402
vn 0.0000 1.0000 0.0000
usemtl (null)
s off
f 1/1/1 2/2/1 3/3/1 4/4/1 5/5/1 6/6/1 7/7/1 8/8/1 9/9/1 10/10/1 20/11/1 19/12/1 18/13/1 17/14/1 16/15/1 15/16/1 14/17/1 13/18/1 12/19/1 11/20/1
