# Blender v3.1.2 OBJ File: 'MazeCollision.blend'
# www.blender.org
mtllib All_Top.192.mtl
o All_Top.192_Mesh.205
v -4.500695 0.450809 13.887633
v -4.160567 0.450809 13.887633
v -3.820438 0.450809 13.887632
v -3.480313 0.450809 13.887633
v -3.140184 0.450809 13.887633
v -2.800057 0.450809 13.887633
v -2.459930 0.450809 13.887633
v -2.119805 0.450809 13.887633
v -1.779675 0.450809 13.887633
v -1.439548 0.450809 13.887633
v -4.500695 0.450809 13.837631
v -4.160567 0.450809 13.837631
v -3.820438 0.450809 13.837629
v -3.480313 0.450809 13.837631
v -3.140184 0.450809 13.837631
v -2.800057 0.450809 13.837631
v -2.459930 0.450809 13.837631
v -2.119805 0.450809 13.837631
v -1.779675 0.450809 13.837631
v -1.439548 0.450809 13.837631
vt 205.088470 342.333252
vt 204.383301 342.333252
vt 203.678085 342.333252
vt 202.972855 342.333252
vt 202.267670 342.333252
vt 201.562393 342.333252
vt 200.857239 342.333252
vt 200.152084 342.333252
vt 199.446777 342.333252
vt 198.741638 342.333252
vt 198.741638 342.224152
vt 199.446777 342.224152
vt 200.152084 342.224152
vt 200.857239 342.224152
vt 201.562393 342.224152
vt 202.267670 342.224152
vt 202.972855 342.224091
vt 203.678085 342.224152
vt 204.383301 342.224152
vt 205.088470 342.224152
vn 0.0000 1.0000 -0.0000
usemtl (null)
s off
f 1/1/1 2/2/1 3/3/1 4/4/1 5/5/1 6/6/1 7/7/1 8/8/1 9/9/1 10/10/1 20/11/1 19/12/1 18/13/1 17/14/1 16/15/1 15/16/1 14/17/1 13/18/1 12/19/1 11/20/1
