# Blender v3.1.2 OBJ File: 'MazeCollision.blend'
# www.blender.org
mtllib All_Top.160.mtl
o All_Top.160_Mesh.173
v 7.743891 0.450809 13.887633
v 8.594212 0.450809 13.887633
v 9.444529 0.450809 13.887632
v 10.294840 0.450809 13.887633
v 11.145166 0.450809 13.887633
v 11.995485 0.450809 13.887633
v 12.845802 0.450809 13.887633
v 13.696121 0.450809 13.887633
v 14.546440 0.450809 13.887633
v 15.396757 0.450809 13.887633
v 7.743891 0.450809 13.837631
v 8.594212 0.450809 13.837631
v 9.444529 0.450809 13.837629
v 10.294840 0.450809 13.837631
v 11.145166 0.450809 13.837631
v 11.995485 0.450809 13.837631
v 12.845802 0.450809 13.837631
v 13.696121 0.450809 13.837631
v 14.546440 0.450809 13.837631
v 15.396757 0.450809 13.837631
vt -316.537170 131.636154
vt -314.774231 131.636154
vt -313.011230 131.636154
vt -311.248169 131.636154
vt -309.485107 131.636154
vt -307.722046 131.636154
vt -305.959045 131.636154
vt -304.196045 131.636154
vt -302.433044 131.636154
vt -300.669983 131.636154
vt -300.669983 131.745300
vt -302.433044 131.745300
vt -304.196045 131.745300
vt -305.959045 131.745300
vt -307.722046 131.745300
vt -309.485107 131.745300
vt -311.248169 131.745300
vt -313.011230 131.745300
vt -314.774231 131.745300
vt -316.537170 131.745300
vn 0.0000 1.0000 -0.0000
usemtl (null)
s off
f 1/1/1 2/2/1 3/3/1 4/4/1 5/5/1 6/6/1 7/7/1 8/8/1 9/9/1 10/10/1 20/11/1 19/12/1 18/13/1 17/14/1 16/15/1 15/16/1 14/17/1 13/18/1 12/19/1 11/20/1
