# Blender v3.1.2 OBJ File: 'new_maze_obb.blend'
# www.blender.org
o Bear.001
v 209.772980 1.378520 206.893158
v 210.011627 1.178775 206.199280
v 210.259552 1.484948 206.708649
v 210.415192 1.935385 206.223785
v 210.398575 1.646073 206.529144
v 210.301025 1.562150 205.959290
v 209.882935 2.427246 207.365891
v 210.271515 2.120404 206.795746
v 207.377808 1.547921 207.655731
v 208.317871 1.330680 207.459656
v 208.573822 1.949133 207.622238
v 208.494934 2.400616 208.230301
v 208.115921 2.354850 208.272400
v 208.280884 2.256710 208.230255
v 207.789383 2.175272 208.231735
v 209.859680 0.991823 204.898209
v 209.864197 0.840280 205.096924
v 209.363785 0.904799 204.261719
v 209.413986 0.639573 205.019745
v 209.591293 0.684846 205.116959
v 209.161163 0.637772 204.746933
v 208.445831 0.636212 203.314240
v 208.072815 0.587663 203.174683
v 208.692291 0.792904 203.348053
v 209.547195 1.068975 204.389069
v 210.150269 1.187989 205.705841
v 208.604340 0.516497 205.478638
v 207.464600 0.838144 206.942871
v 207.426117 0.666848 206.449280
v 208.321671 0.614131 206.455368
v 208.735184 0.579752 204.663147
v 208.390533 0.604248 204.140747
v 207.949768 0.724056 202.607742
v 208.071213 0.993835 202.554153
v 206.981033 0.630671 201.275696
v 206.946747 0.571071 201.788025
v 206.551697 0.604909 201.068085
v 207.522034 0.630412 203.380264
v 207.035645 0.680590 203.273895
v 205.743103 0.811229 202.099121
v 206.330139 0.679031 201.919464
v 206.540588 0.719545 202.901794
v 208.353851 1.073310 207.226715
v 205.463440 1.441545 205.918808
v 206.835861 0.876124 206.569427
v 206.626450 1.039919 206.859421
v 205.712433 1.741678 207.080917
v 204.738892 1.457539 203.820221
v 204.629959 1.748014 204.694839
v 206.975632 1.886659 207.931076
v 206.989975 2.248945 207.965485
v 205.587448 3.264813 206.911469
v 205.712723 1.959688 207.235275
v 205.019348 2.364597 206.674438
v 204.856049 2.035084 206.228806
v 202.520905 3.254980 203.669571
v 202.916580 2.710555 203.931702
v 203.162415 3.166019 204.584793
v 206.454758 5.182940 198.779663
v 205.918045 2.823559 199.049805
v 206.021957 5.312315 198.259262
v 207.714355 0.628600 203.855118
v 207.980637 0.607566 203.834915
v 204.124435 2.184767 197.078705
v 203.683762 2.065206 197.221893
v 203.632660 2.866984 196.723114
v 204.085388 3.778005 196.487671
v 204.338455 4.329269 196.560883
v 205.181732 2.391075 198.150009
v 203.699310 4.347268 196.273651
v 204.014191 4.231409 196.334671
v 203.931946 3.032708 196.648743
v 203.369766 3.693392 196.529053
v 203.043488 5.114120 196.348846
v 203.440125 5.123002 196.251251
v 206.620819 0.636094 200.692719
v 206.802155 0.720827 200.844650
v 205.931763 0.494050 200.122147
v 206.481033 0.922078 200.232605
v 205.625290 0.518419 200.155548
v 204.702835 1.042850 202.319199
v 205.637115 0.654305 199.491272
v 204.919373 0.755147 198.691574
v 204.764023 0.719788 199.119705
v 204.692535 0.852114 198.497391
v 204.676193 1.024000 198.214844
v 204.141708 1.873824 204.084946
v 203.039413 2.079976 203.100464
v 205.073227 1.042472 198.451706
v 204.025513 1.621709 197.555862
v 203.868774 1.264492 199.186340
v 202.865540 2.000059 198.605026
v 201.188812 3.518584 199.301224
v 202.340576 2.185429 199.925598
v 201.573273 3.077261 200.506470
v 200.939346 4.388824 200.151428
v 200.888062 5.061602 201.383392
v 200.626755 4.823369 199.492462
v 200.683228 5.316487 200.632462
v 204.072723 2.484249 205.040115
v 202.611877 2.634505 197.904785
v 202.633392 3.077285 197.464432
v 203.039337 3.517900 196.793091
v 202.063370 2.685491 198.982117
v 202.131332 3.263823 198.228165
v 201.318680 4.358628 198.244598
v 200.817596 4.163763 198.844147
v 201.630859 5.108622 197.295151
v 200.970993 5.285517 197.838287
v 200.828888 4.279869 198.664413
v 200.612625 4.611876 198.828949
v 200.771469 5.225965 198.339767
v 202.542191 3.995632 203.755569
v 201.199738 4.601083 201.823425
v 204.125702 4.135483 205.802246
v 203.394226 1.467500 201.244415
v 202.827209 1.790862 199.778381
v 205.997940 1.144894 199.624268
v 208.201263 0.547282 206.246033
v 206.477600 0.892321 204.606949
v 210.051544 2.371307 205.463715
v 209.386826 1.774297 203.996201
v 208.823395 3.901517 203.166031
v 208.082947 3.810737 201.518646
v 204.062424 2.822404 205.379181
v 204.415863 2.752992 205.945007
v 204.023499 3.245828 205.648331
v 204.421677 3.818405 206.147293
v 207.842438 3.582907 201.183792
v 208.124374 2.906258 201.991714
v 208.536667 3.418126 202.555145
v 208.641693 2.189685 202.947113
v 206.494431 0.685550 202.385483
v 205.708527 4.517719 198.211090
v 206.499664 6.052264 198.296478
v 203.137512 1.701403 201.816422
v 204.798203 0.841846 200.214752
v 202.770691 2.254794 203.028656
v 202.611694 2.521384 203.119141
v 201.879700 4.207386 197.561066
v 202.790848 4.627312 196.573273
v 201.122192 3.652456 199.868042
v 201.279129 4.316458 201.784821
v 201.792068 3.385196 201.902252
v 201.966309 2.643377 201.053162
v 205.155579 1.619017 198.278900
v 204.071136 4.585254 196.325531
v 204.946976 1.847519 206.039963
v 208.692764 0.553161 205.935608
v 209.777222 0.755455 205.259460
v 209.990524 0.930676 205.502243
v 208.920670 1.815347 207.524139
v 210.265625 1.321077 206.261734
vt 1.560290 -0.066066
vt 1.615628 -0.114467
vt 1.598705 -0.038928
vt 1.636133 0.004010
vt 1.616612 -0.020543
vt 1.647334 -0.061905
vt 1.542449 0.093982
vt 1.594433 0.045176
vt 1.348812 -0.085853
vt 1.432061 -0.099076
vt 1.444762 -0.000674
vt 1.417057 0.089279
vt 1.388959 0.076977
vt 1.402058 0.065431
vt -1.460303 -0.217848
vt -1.476925 -0.225095
vt -1.426569 -0.310500
vt -1.497022 -0.291232
vt -1.494395 -0.264755
vt -1.488452 -0.332619
vt -1.357065 -0.511767
vt -1.356343 -0.582018
vt -1.348836 -0.456803
vt -1.429623 -0.264160
vt -1.508103 -0.130146
vt 1.667861 -0.291232
vt 1.670488 -0.264755
vt 1.568838 -0.339228
vt 1.379227 -0.232210
vt 1.395216 -0.302081
vt 1.479443 -0.262840
vt -1.511204 -0.387666
vt -1.479922 -0.465361
vt -1.248528 -0.612316
vt -1.234147 -0.563276
vt -0.849452 -0.731841
vt -0.990783 -0.799357
vt -0.706238 -0.761375
vt -1.445849 -0.651298
vt -1.491224 -0.736765
vt 2.573027 -1.056884
vt 2.243189 -0.928095
vt 1.682249 -0.863623
vt 1.444506 -0.145831
vt 1.165240 -0.313652
vt 1.327896 -0.286478
vt 1.297728 -0.240733
vt 1.198028 -0.134289
vt 0.918338 -0.644385
vt 0.988025 -0.433693
vt 1.308080 -0.028968
vt 1.366054 0.044154
vt 1.308612 0.023563
vt 1.197879 -0.087948
vt 1.119263 -0.073770
vt 1.090861 -0.173502
vt 0.608356 -0.008611
vt 0.671448 -0.160193
vt 0.774440 -0.033990
vt -0.502277 0.531321
vt -0.430387 -0.061186
vt -0.435416 0.556501
vt 1.657433 -0.576303
vt 1.689426 -0.544081
vt -0.246283 0.030776
vt -0.203411 0.012651
vt -0.214713 0.150108
vt -0.257078 0.286505
vt -0.276343 0.369039
vt -0.332624 -0.031705
vt -0.231889 0.374713
vt -0.254736 0.356585
vt -0.240864 0.173765
vt -0.200034 0.276361
vt -0.661987 -0.683313
vt -0.725712 -0.682639
vt -0.453158 -0.624659
vt -0.580988 -0.577910
vt -0.382502 -0.630479
vt 0.410975 -0.866386
vt -0.386433 -0.490161
vt -0.288483 -0.338870
vt -0.252163 -0.398914
vt -0.264946 -0.294625
vt -0.271377 -0.237954
vt 0.837535 -0.466639
vt 0.550426 -0.352843
vt -0.314220 -0.272597
vt -0.223248 -0.078296
vt -0.127489 -0.287539
vt -0.064213 -0.067260
vt 0.103339 0.204645
vt 0.088103 -0.109235
vt 0.192614 0.068441
vt 0.185794 0.349638
vt 0.305391 0.479718
vt 0.144647 0.436802
vt 0.928076 -0.209312
vt -0.084921 0.080803
vt -0.108639 0.165837
vt -0.166600 0.246991
vt 0.025568 0.049408
vt -0.030659 0.175269
vt 0.022448 0.362858
vt 0.088711 0.328727
vt 0.017824 0.512528
vt 0.075975 0.349701
vt 0.097490 0.404159
vt 0.057967 0.504182
vt 0.621149 0.179269
vt 0.347373 0.377198
vt 0.181195 -0.466975
vt 0.034465 -0.198789
vt -0.453826 -0.450347
vt 1.676432 -0.332619
vt 1.673659 -0.736765
vt 1.480690 -0.295549
vt 1.719034 -0.651298
vt -1.482635 -0.863623
vt 1.364279 -0.571853
vt 0.951452 -0.097965
vt 1.026842 -0.064943
vt 0.963522 0.023323
vt 1.035663 0.179842
vt 0.984531 0.241893
vt -0.943370 -0.051467
vt -1.118663 -0.235141
vt -1.024300 0.028488
vt -1.225836 -0.038934
vt -1.288890 -0.281930
vt -1.396366 -0.203783
vt -1.232429 -0.914429
vt -1.507450 -0.576303
vt -1.475457 -0.544081
vt 1.653679 -0.387666
vt -1.495696 0.012856
vt -1.517550 -0.061905
vt -0.396396 0.378935
vt -0.494539 0.721752
vt -0.591856 -1.056884
vt 0.305499 -0.430227
vt -0.193223 -0.573052
vt 0.525515 -0.280275
vt 0.533317 -0.202527
vt -0.051149 0.344055
vt -0.048892 0.485582
vt -0.181675 0.488041
vt -0.156375 0.414923
vt 0.153116 0.214637
vt 0.342022 0.311640
vt 0.238106 0.527995
vt 0.349364 0.072663
vt 0.236941 -0.066297
vt -0.327570 -0.169450
vt -0.213156 0.490143
vt -0.259407 0.409957
vt 1.184587 0.104761
vt 1.097650 -0.228732
vt -1.315836 0.140009
vt -0.921694 -0.928095
vt 1.932455 -0.914429
vt 1.684961 -0.465361
vt 1.542677 -0.290492
vt 1.669731 -0.233001
vt -1.501953 -0.182781
vt -1.495152 -0.233001
vt 1.473509 -0.012045
vt 1.662930 -0.182781
vt 1.656781 -0.130146
vt 1.625816 -0.079565
vn 0.3469 -0.7317 0.5867
vn 0.4189 -0.8681 0.2663
vn 0.6315 -0.5130 0.5814
vn 0.9871 0.1015 -0.1239
vn 0.9688 -0.1993 0.1472
vn 0.9511 -0.1618 -0.2631
vn 0.6415 0.0409 0.7661
vn 0.9106 0.1019 0.4004
vn 0.0040 -0.6816 0.7317
vn 0.1725 -0.4810 0.8596
vn 0.2879 -0.5179 0.8055
vn 0.4231 -0.1681 0.8903
vn -0.0104 0.0867 0.9962
vn 0.2224 -0.5735 0.7885
vn 0.8684 -0.2338 -0.4372
vn 0.7412 -0.6202 -0.2568
vn 0.5580 -0.7392 -0.3772
vn 0.2717 -0.9477 -0.1672
vn 0.3595 -0.9272 -0.1048
vn 0.2137 -0.9672 -0.1376
vn 0.3998 -0.8711 -0.2852
vn 0.0600 -0.9952 -0.0773
vn 0.6974 -0.4657 -0.5448
vn 0.7863 -0.2618 -0.5596
vn 0.9032 -0.3949 -0.1681
vn 0.1294 -0.9907 0.0431
vn -0.1318 -0.8602 0.4926
vn -0.1908 -0.9641 0.1849
vn 0.1572 -0.9127 0.3771
vn 0.1006 -0.9909 -0.0899
vn 0.0574 -0.9970 -0.0514
vn 0.4667 -0.7736 -0.4286
vn 0.7432 -0.3327 -0.5805
vn 0.4096 -0.8344 -0.3688
vn -0.0466 -0.9954 -0.0836
vn -0.0883 -0.9938 -0.0672
vn -0.1006 -0.9947 0.0198
vn -0.1558 -0.9875 0.0235
vn -0.2231 -0.9743 -0.0324
vn -0.2400 -0.9704 -0.0267
vn -0.2126 -0.9769 0.0211
vn 0.1739 -0.7193 0.6726
vn -0.5181 -0.8258 0.2230
vn -0.3437 -0.9211 0.1828
vn -0.3445 -0.8071 0.4795
vn -0.5481 -0.6620 0.5113
vn -0.4378 -0.8806 0.1811
vn -0.6347 -0.7343 0.2408
vn -0.3231 -0.4840 0.8133
vn -0.1396 -0.2177 0.9660
vn -0.4082 0.1986 0.8910
vn -0.5945 -0.1362 0.7925
vn -0.7276 -0.0846 0.6807
vn -0.7632 -0.4836 0.4285
vn -0.8430 -0.2509 0.4757
vn -0.7188 -0.5073 0.4754
vn -0.7609 -0.2681 0.5909
vn 0.7507 -0.2965 -0.5904
vn 0.7475 -0.2208 -0.6265
vn 0.6358 -0.3473 -0.6893
vn -0.0889 -0.9960 0.0049
vn -0.0185 -0.9995 -0.0263
vn 0.3782 -0.4800 -0.7916
vn -0.4459 -0.6499 -0.6154
vn -0.2426 -0.4625 -0.8528
vn 0.5889 -0.2611 -0.7648
vn 0.6943 -0.1534 -0.7031
vn 0.7640 -0.1934 -0.6155
vn -0.0515 -0.1653 -0.9849
vn 0.3668 -0.1925 -0.9102
vn 0.1347 -0.3389 -0.9311
vn -0.3224 -0.2875 -0.9019
vn 0.4425 -0.7886 -0.4270
vn 0.7182 -0.4421 -0.5373
vn 0.1477 -0.9584 -0.2443
vn 0.7259 -0.3242 -0.6066
vn -0.2164 -0.9760 -0.0252
vn -0.3055 -0.9508 0.0518
vn 0.5937 -0.5663 -0.5717
vn 0.1139 -0.9145 -0.3882
vn -0.3511 -0.9337 -0.0708
vn -0.3110 -0.9047 -0.2911
vn 0.1824 -0.7631 -0.6200
vn -0.5308 -0.7788 0.3343
vn -0.5064 -0.8092 0.2980
vn 0.5687 -0.5282 -0.6306
vn -0.2285 -0.8129 -0.5358
vn -0.4430 -0.8919 -0.0904
vn -0.5451 -0.7997 -0.2518
vn -0.7500 -0.6539 -0.0998
vn -0.6317 -0.7720 -0.0712
vn -0.8260 -0.5458 0.1406
vn -0.9024 -0.3865 0.1904
vn -0.8903 0.1231 0.4384
vn -0.9964 0.0816 0.0234
vn -0.6545 -0.6209 0.4314
vn -0.6912 -0.5862 -0.4226
vn -0.6818 -0.4957 -0.5380
vn -0.5672 -0.4031 -0.7182
vn -0.6749 -0.6614 -0.3273
vn -0.7107 -0.5156 -0.4785
vn -0.5728 -0.5794 -0.5799
vn -0.7991 -0.5561 -0.2284
vn -0.7765 -0.2442 -0.5809
vn -0.6553 -0.5306 -0.5376
vn -0.9513 -0.2050 -0.2301
vn -0.9693 0.1610 -0.1859
vn -0.8017 0.0786 0.5925
vn -0.8505 -0.0969 0.5170
vn -0.4346 -0.9003 -0.0247
vn -0.4955 -0.8610 -0.1146
vn 0.7448 -0.2437 -0.6212
vn -0.0298 -0.9943 0.1019
vn -0.2921 -0.9533 0.0772
vn -0.7660 -0.4174 0.4888
vn -0.7592 -0.1736 0.6273
vn -0.7619 -0.1988 0.6164
vn -0.6125 0.0310 0.7898
vn -0.7425 0.1592 0.6507
vn 0.7988 -0.2173 -0.5610
vn 0.8271 -0.1988 -0.5257
vn 0.8833 -0.1221 -0.4527
vn 0.8723 -0.0554 -0.4859
vn 0.7899 -0.1471 -0.5954
vn 0.8469 -0.0542 -0.5290
vn -0.2308 -0.9730 -0.0012
vn 0.8962 0.0414 -0.4417
vn 0.7383 -0.2087 -0.6413
vn 0.7610 -0.2984 -0.5761
vn -0.5197 -0.8489 0.0960
vn -0.3861 -0.9224 -0.0070
vn -0.6519 -0.7016 0.2879
vn -0.8248 -0.4828 0.2943
vn -0.6755 -0.4456 -0.5874
vn -0.6265 -0.1737 -0.7598
vn -0.4061 -0.0489 -0.9125
vn -0.5398 -0.2648 -0.7991
vn -0.8828 -0.4523 0.1270
vn -0.8817 -0.3792 0.2808
vn -0.9144 0.3616 0.1819
vn -0.8684 -0.4472 0.2143
vn -0.7333 -0.6718 0.1046
vn 0.7451 -0.2553 -0.6162
vn 0.0155 0.1203 -0.9926
vn 0.4065 -0.0119 -0.9136
vn -0.4630 0.2324 0.8553
vn -0.6317 -0.7217 0.2831
vn 0.9000 -0.0274 -0.4349
vn 0.2508 -0.9547 0.1603
vn 0.4251 -0.9047 0.0286
vn 0.7088 -0.7017 0.0723
vn 0.3185 -0.4032 0.8579
vn 0.7838 -0.6153 0.0839
s 1
f 1/1/1 2/2/2 3/3/3
f 4/4/4 5/5/5 6/6/6
f 7/7/7 3/3/3 8/8/8
f 9/9/9 10/10/10 11/11/11
f 12/12/12 13/13/13 14/14/14
f 16/15/15 17/16/16 18/17/17
f 19/18/18 18/17/17 20/19/19
f 19/18/18 21/20/20 18/17/17
f 22/21/21 21/20/20 23/22/22
f 18/17/17 24/23/23 25/24/24
f 16/15/15 26/25/25 17/16/16
f 19/26/18 20/27/19 27/28/26
f 28/29/27 29/30/28 30/31/29
f 21/20/20 31/32/30 32/33/31
f 22/21/21 33/34/32 24/23/23
f 34/35/33 33/34/32 35/36/34
f 36/37/35 37/38/36 35/36/34
f 36/37/35 38/39/37 39/40/38
f 40/41/39 41/42/40 42/43/41
f 43/44/42 10/10/10 9/9/9
f 44/45/43 45/46/44 46/47/45
f 44/45/43 46/47/45 47/48/46
f 48/49/47 44/45/43 49/50/48
f 50/51/49 15/52/50 51/53/51
f 47/48/46 50/51/49 53/54/52
f 54/55/53 55/56/54 53/54/52
f 56/57/55 57/58/56 58/59/57
f 59/60/58 60/61/59 61/62/60
f 27/28/26 62/63/61 63/64/62
f 64/65/63 65/66/64 66/67/65
f 67/68/66 68/69/67 69/70/68
f 70/71/69 71/72/70 72/73/71
f 66/67/65 73/74/72 72/73/71
f 35/36/34 76/75/73 77/76/74
f 37/38/36 78/77/75 76/75/73
f 79/78/76 77/76/74 76/75/73
f 80/79/77 37/38/36 81/80/78
f 82/81/79 78/77/75 83/82/80
f 84/83/81 83/82/80 80/79/77
f 83/82/80 85/84/82 86/85/83
f 84/83/81 85/84/82 83/82/80
f 87/86/84 88/87/85 48/49/47
f 89/88/86 86/85/83 64/65/63
f 90/89/87 86/85/83 85/84/82
f 91/90/88 85/84/82 84/83/81
f 92/91/89 85/84/82 91/90/88
f 93/92/90 94/93/91 95/94/92
f 96/95/93 97/96/94 98/97/95
f 100/98/96 58/59/57 57/58/56
f 101/99/97 102/100/98 65/66/64
f 66/67/65 103/101/99 73/74/72
f 104/102/100 105/103/101 101/99/97
f 106/104/102 105/103/101 107/105/103
f 109/106/104 110/107/105 111/108/106
f 109/106/104 111/108/106 112/109/107
f 56/57/55 113/110/108 114/111/109
f 91/90/88 116/112/110 117/113/111
f 60/61/59 79/78/76 118/114/112
f 19/26/18 27/28/26 21/115/20
f 39/116/38 62/63/61 119/117/113
f 39/116/38 38/118/37 62/63/61
f 36/37/35 39/40/38 42/119/41
f 120/120/114 42/43/41 39/116/38
f 125/121/115 126/122/116 127/123/117
f 127/123/117 128/124/118 115/125/119
f 129/126/120 130/127/121 79/78/76
f 124/128/122 131/129/123 130/127/121
f 132/130/124 131/129/123 122/131/125
f 132/130/124 34/35/33 130/127/121
f 131/129/123 132/130/124 130/127/121
f 24/23/23 34/35/33 132/130/124
f 25/24/24 132/130/124 122/131/125
f 45/46/44 48/49/47 120/120/114
f 120/120/114 81/80/78 42/43/41
f 36/37/35 42/119/41 133/132/126
f 29/30/28 45/46/44 120/120/114
f 120/120/114 39/116/38 29/30/28
f 62/133/61 23/22/22 63/134/62
f 62/133/61 38/39/37 23/22/22
f 119/117/113 29/30/28 39/116/38
f 119/117/113 62/63/61 27/28/26
f 21/115/20 27/28/26 31/135/30
f 121/136/127 6/137/6 26/25/25
f 60/61/59 69/70/68 134/138/128
f 61/62/60 135/139/129 59/60/58
f 37/38/36 40/140/39 81/80/78
f 81/80/78 40/41/39 42/43/41
f 116/112/110 81/80/78 136/141/130
f 79/78/76 60/61/59 129/126/120
f 60/61/59 59/60/58 129/126/120
f 118/114/112 69/70/68 60/61/59
f 81/80/78 48/49/47 136/141/130
f 137/142/131 116/112/110 91/90/88
f 92/91/89 91/90/88 117/113/111
f 88/87/85 87/86/84 100/98/96
f 100/98/96 138/143/132 88/87/85
f 100/98/96 57/58/56 138/143/132
f 125/121/115 58/59/57 100/98/96
f 127/123/117 58/59/57 125/121/115
f 58/59/57 113/110/108 56/57/55
f 139/144/133 57/58/56 56/57/55
f 107/105/103 111/108/106 110/107/105
f 110/107/105 106/104/102 107/105/103
f 98/97/95 107/105/103 96/95/93
f 98/97/95 111/108/106 107/105/103
f 140/145/134 106/104/102 109/106/104
f 109/106/104 108/146/135 140/145/134
f 108/146/135 74/147/136 141/148/137
f 108/146/135 141/148/137 140/145/134
f 106/104/102 110/107/105 109/106/104
f 140/145/134 105/103/101 106/104/102
f 141/148/137 103/101/99 140/145/134
f 73/74/72 103/101/99 141/148/137
f 96/95/93 107/105/103 142/149/138
f 142/149/138 107/105/103 93/92/90
f 93/92/90 107/105/103 104/102/100
f 105/103/101 104/102/100 107/105/103
f 105/103/101 140/145/134 102/100/98
f 105/103/101 102/100/98 101/99/97
f 103/101/99 102/100/98 140/145/134
f 143/150/139 114/111/109 97/96/94
f 56/57/55 143/150/139 139/144/133
f 114/111/109 143/150/139 56/57/55
f 57/58/56 139/144/133 138/143/132
f 115/125/119 58/59/57 127/123/117
f 99/151/140 98/97/95 97/96/94
f 143/150/139 97/96/94 96/95/93
f 144/152/141 143/150/139 96/95/93
f 95/94/92 96/95/93 142/149/138
f 96/95/93 95/94/92 144/152/141
f 95/94/92 142/149/138 93/92/90
f 94/93/91 93/92/90 104/102/100
f 95/94/92 94/93/91 145/153/142
f 95/94/92 139/144/133 144/152/141
f 139/144/133 95/94/92 145/153/142
f 139/144/133 143/150/139 144/152/141
f 139/144/133 145/153/142 138/143/132
f 145/153/142 136/141/130 138/143/132
f 94/93/91 136/141/130 145/153/142
f 116/112/110 136/141/130 94/93/91
f 117/113/111 116/112/110 94/93/91
f 92/91/89 104/102/100 101/99/97
f 104/102/100 92/91/89 94/93/91
f 92/91/89 117/113/111 94/93/91
f 65/66/64 92/91/89 101/99/97
f 90/89/87 92/91/89 65/66/64
f 66/67/65 72/73/71 64/65/63
f 103/101/99 65/66/64 102/100/98
f 66/67/65 65/66/64 103/101/99
f 65/66/64 64/65/63 90/89/87
f 92/91/89 90/89/87 85/84/82
f 64/65/63 86/85/83 90/89/87
f 146/154/143 69/70/68 118/114/112
f 82/81/79 146/154/143 118/114/112
f 82/81/79 89/88/86 146/154/143
f 136/141/130 88/87/85 138/143/132
f 136/141/130 48/49/47 88/87/85
f 91/90/88 84/83/81 137/142/131
f 83/82/80 89/88/86 82/81/79
f 83/82/80 86/85/83 89/88/86
f 84/83/81 80/79/77 137/142/131
f 80/79/77 83/82/80 78/77/75
f 81/80/78 137/142/131 80/79/77
f 81/80/78 116/112/110 137/142/131
f 118/114/112 79/78/76 82/81/79
f 76/75/73 82/81/79 79/78/76
f 78/77/75 82/81/79 76/75/73
f 80/79/77 78/77/75 37/38/36
f 74/147/136 73/74/72 141/148/137
f 74/147/136 70/71/69 73/74/72
f 75/155/144 70/71/69 74/147/136
f 147/156/145 71/72/70 70/71/69
f 72/73/71 73/74/72 70/71/69
f 147/156/145 68/69/67 71/72/70
f 71/72/70 67/68/66 72/73/71
f 68/69/67 67/68/66 71/72/70
f 67/68/66 64/65/63 72/73/71
f 69/70/68 68/69/67 134/138/128
f 69/70/68 64/65/63 67/68/66
f 146/154/143 64/65/63 69/70/68
f 89/88/86 64/65/63 146/154/143
f 124/128/122 130/127/121 129/126/120
f 77/76/74 130/127/121 34/35/33
f 130/127/121 77/76/74 79/78/76
f 128/124/118 126/122/116 52/157/146
f 128/124/118 127/123/117 126/122/116
f 61/62/60 60/61/59 134/138/128
f 100/98/96 87/86/84 49/50/48
f 55/56/54 125/121/115 100/98/96
f 125/121/115 55/56/54 126/122/116
f 49/50/48 55/56/54 100/98/96
f 49/50/48 148/158/147 55/56/54
f 55/56/54 54/55/53 126/122/116
f 53/54/52 55/56/54 47/48/46
f 47/48/46 148/158/147 44/45/43
f 148/158/147 47/48/46 55/56/54
f 53/54/52 50/51/49 51/53/51
f 15/52/50 9/9/9 14/14/14
f 15/52/50 50/51/49 9/9/9
f 131/129/123 124/128/122 123/159/148
f 49/50/48 87/86/84 48/49/47
f 24/23/23 132/130/124 25/24/24
f 49/50/48 44/45/43 148/158/147
f 44/45/43 48/49/47 45/46/44
f 50/51/49 46/47/45 9/9/9
f 47/48/46 46/47/45 50/51/49
f 46/47/45 28/29/27 9/9/9
f 45/46/44 28/29/27 46/47/45
f 29/30/28 28/29/27 45/46/44
f 43/44/42 9/9/9 28/29/27
f 81/80/78 120/120/114 48/49/47
f 133/132/126 41/160/40 36/37/35
f 42/43/41 41/42/40 133/161/126
f 37/38/36 41/160/40 40/140/39
f 41/160/40 37/38/36 36/37/35
f 35/36/34 37/38/36 76/75/73
f 36/37/35 23/22/22 38/39/37
f 35/36/34 33/34/32 36/37/35
f 33/34/32 23/22/22 36/37/35
f 35/36/34 77/76/74 34/35/33
f 22/21/21 23/22/22 33/34/32
f 24/23/23 33/34/32 34/35/33
f 63/64/62 31/135/30 27/28/26
f 32/162/31 31/135/30 63/64/62
f 30/31/29 29/30/28 119/117/113
f 30/31/29 43/44/42 28/29/27
f 119/117/113 149/163/149 30/31/29
f 30/31/29 1/1/1 43/44/42
f 30/31/29 2/2/2 1/1/1
f 30/31/29 149/163/149 2/2/2
f 119/117/113 27/28/26 149/163/149
f 27/28/26 2/2/2 149/163/149
f 27/28/26 20/27/19 150/164/150
f 17/16/16 151/165/151 150/166/150
f 17/16/16 26/25/25 151/165/151
f 27/28/26 150/164/150 2/2/2
f 23/22/22 32/33/31 63/134/62
f 23/22/22 21/20/20 32/33/31
f 22/21/21 24/23/23 18/17/17
f 21/20/20 22/21/21 18/17/17
f 25/24/24 122/131/125 16/15/15
f 18/17/17 25/24/24 16/15/15
f 20/19/19 18/17/17 150/166/150
f 18/17/17 17/16/16 150/166/150
f 14/14/14 13/13/13 15/52/50
f 12/12/12 11/11/11 7/7/7
f 12/12/12 14/14/14 11/11/11
f 9/9/9 11/11/11 14/14/14
f 11/11/11 152/167/152 7/7/7
f 11/11/11 10/10/10 152/167/152
f 152/167/152 10/10/10 43/44/42
f 8/8/8 3/3/3 5/5/5
f 1/1/1 152/167/152 43/44/42
f 152/167/152 3/3/3 7/7/7
f 152/167/152 1/1/1 3/3/3
f 2/2/2 151/168/151 26/169/25
f 151/168/151 2/2/2 150/164/150
f 6/6/6 153/170/153 26/169/25
f 153/170/153 5/5/5 3/3/3
f 6/6/6 5/5/5 153/170/153
f 153/170/153 2/2/2 26/169/25
f 3/3/3 2/2/2 153/170/153
