# Blender v3.1.2 OBJ File: 'new_maze_obb.blend'
# www.blender.org
o Circle
v -141.883301 0.969960 151.278290
v -139.390320 0.971602 150.093399
v -137.880295 0.956061 150.473587
v -142.201721 0.946827 158.637238
v -143.117584 0.970935 159.810196
v -141.921280 0.956058 157.472763
v -133.839325 0.956060 152.806641
v -133.839325 0.956058 157.472763
v -137.880295 0.956058 159.805817
v -133.158844 0.956059 156.749390
v -131.046844 0.965724 155.943680
v -133.158844 0.956059 153.529999
v -131.046844 0.965724 154.335709
v -139.954208 0.978609 160.411133
v -142.071014 0.929710 149.275330
v -141.209961 0.929710 148.778198
v -142.426941 0.934797 160.682693
vt -0.764738 0.086725
vt -0.764738 0.086725
vt -0.764738 0.086725
vt -0.764738 0.086725
vt -0.764738 0.086725
vt -0.764738 0.086725
vt -0.764738 0.086725
vt -0.764738 0.086725
vt -0.764738 0.086725
vt -0.764738 0.086725
vt -0.764738 0.086725
vt -0.764738 0.086725
vt -0.764738 0.086725
vt -0.764738 0.086725
vt -0.764738 0.086725
vt -0.764738 0.086725
vt -0.764738 0.086725
vn -0.0065 -0.9999 -0.0151
vn 0.0001 -1.0000 0.0067
vn -0.0008 -1.0000 -0.0005
vn -0.0002 -1.0000 -0.0001
vn -0.0003 -1.0000 -0.0002
vn 0.0000 -1.0000 0.0062
vn 0.0040 -1.0000 -0.0000
vn 0.0037 -1.0000 -0.0000
vn 0.0046 -1.0000 -0.0000
vn 0.0029 -1.0000 -0.0031
vn 0.0035 -1.0000 -0.0047
vn 0.0099 -0.9998 0.0188
vn 0.0035 -1.0000 -0.0055
s 1
f 1/1/1 2/2/1 3/3/1
f 6/4/2 1/1/3 3/3/3 7/5/4 8/6/5 9/7/6
f 10/8/7 8/6/5 7/5/4 12/9/8
f 11/10/9 10/8/7 12/9/8 13/11/9
f 14/12/10 4/13/11 6/4/2 9/7/6
f 15/14/12 16/15/12 2/2/12 1/1/12
f 17/16/13 5/17/13 4/13/11 14/12/10
