# Blender v3.1.2 OBJ File: 'new_maze_obb.blend'
# www.blender.org
o geisel.013
v 40.127186 1.790459 22.136328
v 43.418808 1.790459 22.093777
v 40.162827 1.790459 24.879313
v 43.454235 1.790459 24.836761
v 43.450779 1.790459 24.562441
v 40.130856 1.790459 22.410650
v 40.159153 1.790459 24.605209
v 43.422482 1.790459 22.368097
v 39.130558 1.790459 24.618385
v 44.479370 1.790459 24.549265
v 44.451077 1.790459 22.354704
v 39.102264 1.790459 22.424042
vt 50.799999 -113.300003
vt -50.799999 -113.300003
vt 50.799999 -65.675003
vt -50.799999 -65.675003
vt 50.799999 86.724998
vt -50.799999 86.724998
vt 50.799999 134.350006
vt -50.799999 134.350006
vt -63.500000 -65.675003
vt -63.500000 86.724998
vt 63.500000 86.724998
vt 63.500000 -65.675003
vn -0.0000 -1.0000 -0.0000
s 1
f 9/1/1 12/2/1 7/3/1
f 7/3/1 12/2/1 6/4/1
f 7/3/1 6/4/1 5/5/1
f 5/5/1 6/4/1 8/6/1
f 5/5/1 8/6/1 10/7/1
f 10/7/1 8/6/1 11/8/1
f 6/4/1 1/9/1 8/6/1
f 8/6/1 1/9/1 2/10/1
f 5/5/1 4/11/1 7/3/1
f 7/3/1 4/11/1 3/12/1
