# Blender v3.1.2 OBJ File: 'new_maze_obb.blend'
# www.blender.org
o geisel.007
v -4.230550 0.828926 -18.078300
v -4.250270 0.828926 -19.602200
v -2.960650 0.828926 -18.094700
v -2.980380 0.828926 -19.618601
v -3.107370 0.828926 -19.616899
v -4.103560 0.828926 -18.079901
v -3.087640 0.828926 -18.093100
v -4.123280 0.828926 -19.603800
v -3.081480 0.828926 -17.616899
v -3.113530 0.828926 -20.093201
v -4.129450 0.828926 -20.080000
v -4.097390 0.828926 -17.603701
vt 50.799999 -113.300003
vt -50.799999 -113.300003
vt 50.799999 -65.675003
vt -50.799999 -65.675003
vt 50.799999 86.724998
vt -50.799999 86.724998
vt 50.799999 134.350006
vt -50.799999 134.350006
vt -63.500000 -65.675003
vt -63.500000 86.724998
vt 63.500000 86.724998
vt 63.500000 -65.675003
vn -0.0000 -1.0000 0.0000
s 1
f 9/1/1 12/2/1 7/3/1
f 7/3/1 12/2/1 6/4/1
f 7/3/1 6/4/1 5/5/1
f 5/5/1 6/4/1 8/6/1
f 5/5/1 8/6/1 10/7/1
f 10/7/1 8/6/1 11/8/1
f 6/4/1 1/9/1 8/6/1
f 8/6/1 1/9/1 2/10/1
f 5/5/1 4/11/1 7/3/1
f 7/3/1 4/11/1 3/12/1
