# Blender v3.1.2 OBJ File: 'new_maze_obb.blend'
# www.blender.org
o geisel.019
v -38.384281 1.790464 9.802729
v -41.675903 1.790464 9.845345
v -38.419922 1.790464 7.059766
v -41.711330 1.790464 7.102362
v -41.707874 1.790464 7.376660
v -38.387951 1.790464 9.528430
v -38.416248 1.790464 7.334065
v -41.679359 1.790464 9.571047
v -37.387657 1.790464 7.320737
v -42.736465 1.790464 7.389987
v -37.359360 1.790464 9.515124
v -42.708172 1.790464 9.584352
vt 50.799999 -113.300003
vt -50.799999 -113.300003
vt 50.799999 -65.675003
vt -50.799999 -65.675003
vt 50.799999 86.724998
vt -50.799999 86.724998
vt 50.799999 134.350006
vt -50.799999 134.350006
vt -63.500000 -65.675003
vt -63.500000 86.724998
vt 63.500000 86.724998
vt 63.500000 -65.675003
vn -0.0000 -1.0000 -0.0000
s 1
f 9/1/1 11/2/1 7/3/1
f 7/3/1 11/2/1 6/4/1
f 7/3/1 6/4/1 5/5/1
f 5/5/1 6/4/1 8/6/1
f 5/5/1 8/6/1 10/7/1
f 10/7/1 8/6/1 12/8/1
f 8/6/1 1/9/1 2/10/1
f 5/5/1 4/11/1 7/3/1
f 7/3/1 4/11/1 3/12/1
