# Blender v3.1.2 OBJ File: 'new_maze_obb.blend'
# www.blender.org
o geisel.019
v -17.770500 0.828918 4.538300
v -19.294399 0.828918 4.558030
v -17.787001 0.828918 3.268410
v -19.310801 0.828918 3.288130
v -19.309200 0.828918 3.415120
v -17.772200 0.828918 4.411310
v -17.785299 0.828918 3.395400
v -19.296000 0.828918 4.431040
v -17.309099 0.828918 3.389230
v -19.785400 0.828918 3.421290
v -17.296000 0.828918 4.405150
v -19.772301 0.828918 4.437200
vt 50.799999 -113.300003
vt -50.799999 -113.300003
vt 50.799999 -65.675003
vt -50.799999 -65.675003
vt 50.799999 86.724998
vt -50.799999 86.724998
vt 50.799999 134.350006
vt -50.799999 134.350006
vt -63.500000 -65.675003
vt -63.500000 86.724998
vt 63.500000 86.724998
vt 63.500000 -65.675003
vn -0.0000 -1.0000 -0.0000
s 1
f 9/1/1 11/2/1 7/3/1
f 7/3/1 11/2/1 6/4/1
f 7/3/1 6/4/1 5/5/1
f 5/5/1 6/4/1 8/6/1
f 5/5/1 8/6/1 10/7/1
f 10/7/1 8/6/1 12/8/1
f 8/6/1 1/9/1 2/10/1
f 5/5/1 4/11/1 7/3/1
f 7/3/1 4/11/1 3/12/1
