# Blender v3.1.2 OBJ File: 'new_maze_obb.blend'
# www.blender.org
o geisel.018
v -17.674801 0.828916 11.931600
v -19.198700 0.828916 11.951400
v -17.691299 0.828916 10.661700
v -19.215099 0.828916 10.681500
v -19.213499 0.828916 10.808400
v -17.676500 0.828916 11.804600
v -17.689600 0.828916 10.788700
v -19.200300 0.828916 11.824400
v -17.213400 0.828916 10.782600
v -19.689699 0.828916 10.814600
v -19.676500 0.828916 11.830500
v -17.200300 0.828916 11.798500
vt 50.799999 -113.300003
vt -50.799999 -113.300003
vt 50.799999 -65.675003
vt -50.799999 -65.675003
vt 50.799999 86.724998
vt -50.799999 86.724998
vt 50.799999 134.350006
vt -50.799999 134.350006
vt -63.500000 -65.675003
vt -63.500000 86.724998
vt 63.500000 86.724998
vt 63.500000 -65.675003
vn -0.0000 -1.0000 -0.0000
s 1
f 9/1/1 12/2/1 7/3/1
f 7/3/1 12/2/1 6/4/1
f 7/3/1 6/4/1 5/5/1
f 5/5/1 6/4/1 8/6/1
f 5/5/1 8/6/1 10/7/1
f 10/7/1 8/6/1 11/8/1
f 6/4/1 1/9/1 8/6/1
f 8/6/1 1/9/1 2/10/1
f 5/5/1 4/11/1 7/3/1
f 7/3/1 4/11/1 3/12/1
