# Blender v3.1.2 OBJ File: 'new_maze_obb.blend'
# www.blender.org
o geisel.016
v -2.674260 0.828914 18.175600
v -2.680420 0.828914 17.699400
v -2.654540 0.828914 19.699499
v -2.648370 0.828914 20.175699
v -3.696340 0.828914 17.712601
v -3.690180 0.828914 18.188801
v -3.670450 0.828914 19.712700
v -3.664280 0.828914 20.188900
v -2.547270 0.828914 18.174000
v -2.527540 0.828914 19.697901
v -3.817160 0.828914 18.190399
v -3.797440 0.828914 19.714300
vt 50.799999 -113.300003
vt -50.799999 -113.300003
vt 50.799999 -65.675003
vt -50.799999 -65.675003
vt 50.799999 86.724998
vt -50.799999 86.724998
vt 50.799999 134.350006
vt -50.799999 134.350006
vt -63.500000 -65.675003
vt -63.500000 86.724998
vt 63.500000 86.724998
vt 63.500000 -65.675003
vn -0.0000 -1.0000 -0.0000
s 1
f 5/1/1 2/2/1 6/3/1
f 6/3/1 2/2/1 1/4/1
f 6/3/1 1/4/1 7/5/1
f 7/5/1 1/4/1 3/6/1
f 7/5/1 3/6/1 8/7/1
f 8/7/1 3/6/1 4/8/1
f 1/4/1 9/9/1 3/6/1
f 3/6/1 9/9/1 10/10/1
f 7/5/1 12/11/1 6/3/1
f 6/3/1 12/11/1 11/12/1
