# Blender v3.1.2 OBJ File: 'new_maze_obb.blend'
# www.blender.org
o geisel.003
v 10.086200 0.828922 -7.461440
v 10.130200 0.828922 -4.064480
v 9.495270 0.828922 -4.056260
v 4.116610 0.828924 -9.924380
v 7.513580 0.828924 -9.968360
v 8.090170 0.828922 -4.673120
v 9.487050 0.828922 -4.691210
v 4.124830 0.828923 -9.289440
v 4.759780 0.828923 -9.297660
v 4.777860 0.828922 -7.900770
v 8.488020 0.828924 -9.787610
v 9.319110 0.828923 -9.247710
v 9.880330 0.828922 -8.430880
vt -457.200012 -922.924988
vt -733.424988 -986.424988
vt -457.200012 -783.224976
vt -830.627014 -967.090027
vt -913.030029 -912.030029
vt -393.700012 -922.924988
vt -393.700012 -986.424988
vt -968.090027 -829.627014
vt -987.424988 -732.424988
vt -784.224976 -456.200012
vt -923.924988 -456.200012
vt -987.424988 -392.700012
vt -923.924988 -392.700012
vn 0.0000 -1.0000 -0.0000
s 1
f 9/1/1 5/2/1 10/3/1
f 10/3/1 5/2/1 11/4/1
f 10/3/1 11/4/1 12/5/1
f 8/6/1 4/7/1 9/1/1
f 9/1/1 4/7/1 5/2/1
f 12/5/1 13/8/1 10/3/1
f 10/3/1 13/8/1 1/9/1
f 10/3/1 1/9/1 6/10/1
f 6/10/1 1/9/1 7/11/1
f 7/11/1 1/9/1 2/12/1
f 7/11/1 2/12/1 3/13/1
