# Blender v3.1.2 OBJ File: 'new_maze_obb.blend'
# www.blender.org
o geisel.015
v 3.696980 0.828914 17.616899
v 3.703150 0.828914 18.093100
v 3.722870 0.828914 19.616899
v 3.729040 0.828914 20.093201
v 4.846050 0.828914 18.078300
v 4.865780 0.828914 19.602200
v 3.576160 0.828914 18.094700
v 3.595880 0.828914 19.618601
v 4.719060 0.828914 18.079901
v 4.738790 0.828914 19.603800
v 4.744950 0.828914 20.080000
v 4.712900 0.828914 17.603701
vt 50.799999 -113.300003
vt -50.799999 -113.300003
vt 50.799999 -65.675003
vt -50.799999 -65.675003
vt 50.799999 86.724998
vt -50.799999 86.724998
vt 50.799999 134.350006
vt -50.799999 134.350006
vt -63.500000 -65.675003
vt -63.500000 86.724998
vt 63.500000 86.724998
vt 63.500000 -65.675003
vn -0.0000 -1.0000 0.0000
s 1
f 1/1/1 12/2/1 2/3/1
f 2/3/1 12/2/1 9/4/1
f 2/3/1 9/4/1 3/5/1
f 3/5/1 9/4/1 10/6/1
f 3/5/1 10/6/1 4/7/1
f 4/7/1 10/6/1 11/8/1
f 9/4/1 5/9/1 10/6/1
f 10/6/1 5/9/1 6/10/1
f 3/5/1 8/11/1 2/3/1
f 2/3/1 8/11/1 7/12/1
