# Blender v3.1.2 OBJ File: 'new_maze_obb.blend'
# www.blender.org
o geisel.012
v 39.920475 1.790466 6.166844
v 43.212097 1.790466 6.124249
v 39.956112 1.790464 8.909827
v 43.247520 1.790464 8.867210
v 43.244064 1.790464 8.592913
v 39.924145 1.790466 6.441142
v 39.952442 1.790464 8.635530
v 43.215553 1.790466 6.398547
v 38.923851 1.790464 8.648834
v 44.272655 1.790464 8.579607
v 44.244362 1.790466 6.385220
v 38.895554 1.790466 6.454469
vt 50.799999 -113.300003
vt -50.799999 -113.300003
vt 50.799999 -65.675003
vt -50.799999 -65.675003
vt 50.799999 86.724998
vt -50.799999 86.724998
vt 50.799999 134.350006
vt -50.799999 134.350006
vt -63.500000 -65.675003
vt -63.500000 86.724998
vt 63.500000 86.724998
vt 63.500000 -65.675003
vn -0.0000 -1.0000 -0.0000
s 1
f 9/1/1 12/2/1 7/3/1
f 7/3/1 12/2/1 6/4/1
f 7/3/1 6/4/1 5/5/1
f 5/5/1 6/4/1 8/6/1
f 5/5/1 8/6/1 10/7/1
f 10/7/1 8/6/1 11/8/1
f 6/4/1 1/9/1 8/6/1
f 8/6/1 1/9/1 2/10/1
f 5/5/1 4/11/1 7/3/1
f 7/3/1 4/11/1 3/12/1
