# Blender v3.1.2 OBJ File: 'new_maze_obb.blend'
# www.blender.org
o geisel.011
v 39.713760 1.790471 -9.802729
v 43.005386 1.790471 -9.845324
v 39.749401 1.790471 -7.059744
v 43.040810 1.790471 -7.102361
v 43.037354 1.790471 -7.376659
v 39.717430 1.790471 -9.528430
v 39.745731 1.790471 -7.334042
v 43.008842 1.790471 -9.571047
v 38.717140 1.790471 -7.320736
v 44.065945 1.790471 -7.389965
v 44.037651 1.790471 -9.584352
v 38.688843 1.790471 -9.515124
vt 50.799999 -113.300003
vt -50.799999 -113.300003
vt 50.799999 -65.675003
vt -50.799999 -65.675003
vt 50.799999 86.724998
vt -50.799999 86.724998
vt 50.799999 134.350006
vt -50.799999 134.350006
vt -63.500000 -65.675003
vt -63.500000 86.724998
vt 63.500000 86.724998
vt 63.500000 -65.675003
vn -0.0000 -1.0000 -0.0000
s 1
f 9/1/1 12/2/1 7/3/1
f 7/3/1 12/2/1 6/4/1
f 7/3/1 6/4/1 5/5/1
f 5/5/1 6/4/1 8/6/1
f 5/5/1 8/6/1 10/7/1
f 10/7/1 8/6/1 11/8/1
f 6/4/1 1/9/1 8/6/1
f 8/6/1 1/9/1 2/10/1
f 5/5/1 4/11/1 7/3/1
f 7/3/1 4/11/1 3/12/1
