# Blender v3.1.2 OBJ File: 'new_maze_obb.blend'
# www.blender.org
o geisel.011
v 18.386000 0.828922 -4.538300
v 19.909901 0.828922 -4.558020
v 18.402500 0.828922 -3.268400
v 19.926300 0.828922 -3.288130
v 19.924700 0.828922 -3.415120
v 18.387699 0.828922 -4.411310
v 18.400801 0.828922 -3.395390
v 19.911501 0.828922 -4.431040
v 17.924601 0.828922 -3.389230
v 20.400900 0.828922 -3.421280
v 20.387800 0.828922 -4.437200
v 17.911501 0.828922 -4.405150
vt 50.799999 -113.300003
vt -50.799999 -113.300003
vt 50.799999 -65.675003
vt -50.799999 -65.675003
vt 50.799999 86.724998
vt -50.799999 86.724998
vt 50.799999 134.350006
vt -50.799999 134.350006
vt -63.500000 -65.675003
vt -63.500000 86.724998
vt 63.500000 86.724998
vt 63.500000 -65.675003
vn -0.0000 -1.0000 -0.0000
s 1
f 9/1/1 12/2/1 7/3/1
f 7/3/1 12/2/1 6/4/1
f 7/3/1 6/4/1 5/5/1
f 5/5/1 6/4/1 8/6/1
f 5/5/1 8/6/1 10/7/1
f 10/7/1 8/6/1 11/8/1
f 6/4/1 1/9/1 8/6/1
f 8/6/1 1/9/1 2/10/1
f 5/5/1 4/11/1 7/3/1
f 7/3/1 4/11/1 3/12/1
