# Blender v3.1.2 OBJ File: 'new_maze_obb.blend'
# www.blender.org
o geisel.006
v -11.623900 0.828926 -17.982599
v -11.643600 0.828926 -19.506399
v -10.354000 0.828926 -17.999001
v -10.373700 0.828926 -19.522900
v -10.500700 0.828926 -19.521200
v -11.496900 0.828926 -17.984200
v -10.481000 0.828926 -17.997400
v -11.516600 0.828926 -19.508101
v -10.474800 0.828926 -17.521200
v -10.506900 0.828926 -19.997499
v -11.522800 0.828926 -19.984301
v -11.490700 0.828926 -17.507999
vt 50.799999 -113.300003
vt -50.799999 -113.300003
vt 50.799999 -65.675003
vt -50.799999 -65.675003
vt 50.799999 86.724998
vt -50.799999 86.724998
vt 50.799999 134.350006
vt -50.799999 134.350006
vt -63.500000 -65.675003
vt -63.500000 86.724998
vt 63.500000 86.724998
vt 63.500000 -65.675003
vn -0.0000 -1.0000 0.0000
s 1
f 9/1/1 12/2/1 7/3/1
f 7/3/1 12/2/1 6/4/1
f 7/3/1 6/4/1 5/5/1
f 5/5/1 6/4/1 8/6/1
f 5/5/1 8/6/1 10/7/1
f 10/7/1 8/6/1 11/8/1
f 6/4/1 1/9/1 8/6/1
f 8/6/1 1/9/1 2/10/1
f 5/5/1 4/11/1 7/3/1
f 7/3/1 4/11/1 3/12/1
