# Blender v3.1.2 OBJ File: 'new_maze_obb.blend'
# www.blender.org
o geisel.016
v -5.776402 1.790454 39.259296
v -5.789707 1.790455 38.230705
v -5.733807 1.790454 42.550919
v -5.720479 1.790454 43.579514
v -7.984095 1.790455 38.259220
v -7.970789 1.790454 39.287811
v -7.928172 1.790454 42.579433
v -7.914845 1.790454 43.608025
v -5.502103 1.790454 39.255840
v -5.459486 1.790454 42.547466
v -8.245066 1.790454 39.291264
v -8.202471 1.790454 42.582890
vt 50.799999 -113.300003
vt -50.799999 -113.300003
vt 50.799999 -65.675003
vt -50.799999 -65.675003
vt 50.799999 86.724998
vt -50.799999 86.724998
vt 50.799999 134.350006
vt -50.799999 134.350006
vt -63.500000 -65.675003
vt -63.500000 86.724998
vt 63.500000 86.724998
vt 63.500000 -65.675003
vn -0.0000 -1.0000 -0.0000
s 1
f 5/1/1 2/2/1 6/3/1
f 6/3/1 2/2/1 1/4/1
f 6/3/1 1/4/1 7/5/1
f 7/5/1 1/4/1 3/6/1
f 7/5/1 3/6/1 8/7/1
f 8/7/1 3/6/1 4/8/1
f 1/4/1 9/9/1 3/6/1
f 3/6/1 9/9/1 10/10/1
f 7/5/1 12/11/1 6/3/1
f 6/3/1 12/11/1 11/12/1
