# Blender v3.1.2 OBJ File: 'new_maze_obb.blend'
# www.blender.org
o geisel.009
v 11.699000 0.828926 -18.284500
v 11.705200 0.828926 -17.808300
v 11.679300 0.828926 -19.808399
v 11.673100 0.828926 -20.284599
v 10.556100 0.828926 -18.269699
v 10.536400 0.828926 -19.793600
v 11.826000 0.828926 -18.286100
v 11.806300 0.828926 -19.809999
v 10.683100 0.828926 -18.271299
v 10.663400 0.828926 -19.795200
v 10.657200 0.828926 -20.271400
v 10.689200 0.828926 -17.795099
vt 50.799999 -113.300003
vt -50.799999 -113.300003
vt 50.799999 -65.675003
vt -50.799999 -65.675003
vt 50.799999 86.724998
vt -50.799999 86.724998
vt 50.799999 134.350006
vt -50.799999 134.350006
vt -63.500000 -65.675003
vt -63.500000 86.724998
vt 63.500000 86.724998
vt 63.500000 -65.675003
vn -0.0000 -1.0000 -0.0000
s 1
f 2/1/1 12/2/1 1/3/1
f 1/3/1 12/2/1 9/4/1
f 1/3/1 9/4/1 3/5/1
f 3/5/1 9/4/1 10/6/1
f 3/5/1 10/6/1 4/7/1
f 4/7/1 10/6/1 11/8/1
f 9/4/1 5/9/1 10/6/1
f 10/6/1 5/9/1 6/10/1
f 3/5/1 8/11/1 1/3/1
f 1/3/1 8/11/1 7/12/1
