# Blender v3.1.2 OBJ File: 'new_maze_obb.blend'
# www.blender.org
o Raccoon_Plane.002
v -205.716034 0.189673 -206.320511
v -201.926178 0.191615 -203.712952
v -192.865112 0.202693 -198.519669
v -190.653687 0.202982 -196.861343
v -201.321716 0.200649 -204.708771
v -205.383911 0.194637 -206.867676
v -190.041367 0.212132 -197.870041
v -192.533081 0.207655 -199.066650
v -198.146790 0.248095 -209.939087
v -202.208954 0.242084 -212.097992
v -186.866440 0.259578 -203.100357
v -189.358124 0.255102 -204.296997
v -198.751236 0.239062 -208.943298
v -202.541107 0.237119 -211.550842
v -187.478760 0.250428 -202.091660
v -189.690170 0.250139 -203.750000
v -206.736755 1.799614 -207.617950
v -207.185654 1.797024 -206.864792
v -195.030075 3.366853 -200.350052
v -195.228653 3.363885 -200.022949
v -203.382965 1.853852 -213.129257
v -203.843933 1.842846 -212.383499
v -191.807922 3.415005 -205.658188
v -192.006470 3.412037 -205.331055
vt 1.000000 0.000000
vt 1.000000 0.000000
vt 1.000000 0.000000
vt 1.000000 0.000000
vt 1.000000 0.000000
vt 1.000000 0.000000
vt 1.000000 0.000000
vt 1.000000 0.000000
vt 1.000000 0.000000
vt 1.000000 0.000000
vt 1.000000 0.000000
vt 1.000000 0.000000
vt 1.000000 0.000000
vt 1.000000 0.000000
vt 1.000000 0.000000
vt 1.000000 0.000000
vt 1.000000 0.000000
vt 1.000000 0.000000
vt 1.000000 0.000000
vt 1.000000 0.000000
vt 1.000000 0.000000
vt 1.000000 0.000000
vt 1.000000 0.000000
vt 1.000000 0.000000
vn 0.0048 -1.0000 -0.0062
vn -0.6166 -0.6926 -0.3744
vn -0.6371 -0.6632 -0.3928
vn -0.6111 -0.6925 -0.3834
s 1
f 1/1/1 6/2/1 5/3/1 2/4/1
f 3/5/1 8/6/1 7/7/1 4/8/1
f 10/9/1 9/10/1 13/11/1 14/12/1
f 12/13/1 11/14/1 15/15/1 16/16/1
f 18/17/2 17/18/2 6/2/2 1/1/2
f 20/19/3 19/20/3 8/6/3 3/5/3
f 21/21/4 10/9/4 14/12/4 22/22/4
f 23/23/3 12/13/3 16/16/3 24/24/3
