# Blender v3.1.2 OBJ File: 'new_maze_obb.blend'
# www.blender.org
o Sakura.002_Plane.004
v -66.069168 -0.947507 -141.995667
v -68.406235 -0.333814 -141.938431
v -64.239662 -1.220240 -140.478226
v -64.914841 -2.341028 -140.370056
v -66.604759 -2.180071 -141.494339
v -68.496979 -1.473720 -141.653625
v -69.881714 0.218242 -140.169250
v -69.754898 0.477912 -137.836517
v -69.631042 -1.424555 -140.036026
v -69.744698 -1.081793 -138.044098
v -67.938515 0.151946 -136.323883
v -65.588326 -0.408515 -136.376297
v -68.187859 -1.782702 -136.968704
v -66.162552 -1.949104 -136.760529
v -64.125961 -1.013803 -138.150299
v -65.161583 -2.538213 -138.427002
v -67.535965 -2.547949 -139.282806
vt -0.764738 0.086725
vt -0.764738 0.086725
vt -0.764738 0.086725
vt -0.764738 0.086725
vt -0.764738 0.086725
vt -0.764738 0.086725
vt -0.764738 0.086725
vt -0.764738 0.086725
vt -0.764738 0.086725
vt -0.764738 0.086725
vt -0.764738 0.086725
vt -0.764738 0.086725
vt -0.764738 0.086725
vt -0.764738 0.086725
vt -0.764738 0.086725
vt -0.764738 0.086725
vt -0.764738 0.086725
vn 0.5003 -0.4491 -0.7403
vn -0.0698 -0.2971 -0.9523
vn -0.7963 -0.1344 -0.5897
vn -0.9966 -0.0815 0.0144
vn -0.6295 -0.1432 0.7637
vn -0.0784 -0.2659 0.9608
vn 0.6347 -0.4662 0.6163
vn 0.8386 -0.5441 0.0273
vn 0.0253 -0.9915 -0.1277
vn -0.1022 -0.9539 0.2821
vn -0.4954 -0.8585 0.1328
vn -0.3516 -0.8980 -0.2644
s 1
f 1/1/1 3/2/1 4/3/1 5/4/1
f 2/5/2 1/1/2 5/4/2 6/6/2
f 7/7/3 2/5/3 6/6/3 9/8/3
f 8/9/4 7/7/4 9/8/4 10/10/4
f 11/11/5 8/9/5 10/10/5 13/12/5
f 12/13/6 11/11/6 13/12/6 14/14/6
f 15/15/7 12/13/7 14/14/7 16/16/7
f 3/2/8 15/15/8 16/16/8 4/3/8
f 4/3/9 16/16/9 17/17/9 5/4/9
f 16/16/10 14/14/10 13/12/10 17/17/10
f 17/17/11 13/12/11 10/10/11 9/8/11
f 5/4/12 17/17/12 9/8/12 6/6/12
