# Blender v3.1.2 OBJ File: 'new_maze_obb.blend'
# www.blender.org
o Sakura.001_Plane.003
v 123.926361 -0.947555 151.572525
v 121.589287 -0.333862 151.629761
v 125.755859 -1.220288 153.089966
v 125.080688 -2.341076 153.198120
v 123.390770 -2.180119 152.073837
v 121.498550 -1.473768 151.914536
v 120.113815 0.218194 153.398926
v 120.240631 0.477865 155.731674
v 120.364487 -1.424603 153.532135
v 120.250824 -1.081841 155.524094
v 122.057022 0.151898 157.244293
v 124.407204 -0.408563 157.191895
v 121.807663 -1.782750 156.599487
v 123.832977 -1.949152 156.807663
v 125.869560 -1.013850 155.417892
v 124.833946 -2.538261 155.141174
v 122.459564 -2.547997 154.285370
vt -0.764738 0.086725
vt -0.764738 0.086725
vt -0.764738 0.086725
vt -0.764738 0.086725
vt -0.764738 0.086725
vt -0.764738 0.086725
vt -0.764738 0.086725
vt -0.764738 0.086725
vt -0.764738 0.086725
vt -0.764738 0.086725
vt -0.764738 0.086725
vt -0.764738 0.086725
vt -0.764738 0.086725
vt -0.764738 0.086725
vt -0.764738 0.086725
vt -0.764738 0.086725
vt -0.764738 0.086725
vn 0.5003 -0.4491 -0.7403
vn -0.0698 -0.2971 -0.9523
vn -0.7963 -0.1344 -0.5897
vn -0.9966 -0.0815 0.0144
vn -0.6295 -0.1432 0.7637
vn -0.0784 -0.2659 0.9608
vn 0.6347 -0.4663 0.6163
vn 0.8386 -0.5441 0.0273
vn 0.0253 -0.9915 -0.1277
vn -0.1022 -0.9539 0.2821
vn -0.4954 -0.8585 0.1328
vn -0.3516 -0.8980 -0.2644
s 1
f 1/1/1 3/2/1 4/3/1 5/4/1
f 2/5/2 1/1/2 5/4/2 6/6/2
f 7/7/3 2/5/3 6/6/3 9/8/3
f 8/9/4 7/7/4 9/8/4 10/10/4
f 11/11/5 8/9/5 10/10/5 13/12/5
f 12/13/6 11/11/6 13/12/6 14/14/6
f 15/15/7 12/13/7 14/14/7 16/16/7
f 3/2/8 15/15/8 16/16/8 4/3/8
f 4/3/9 16/16/9 17/17/9 5/4/9
f 16/16/10 14/14/10 13/12/10 17/17/10
f 17/17/11 13/12/11 10/10/11 9/8/11
f 5/4/12 17/17/12 9/8/12 6/6/12
