# Blender v3.1.2 OBJ File: 'new_maze_obb.blend'
# www.blender.org
o Stonehenge_Stonehenge_East2.004
v -15.827365 0.254223 198.147827
v -15.426943 0.254223 196.772827
v -18.127338 0.254223 195.986420
v -18.527756 0.254223 197.361435
v -8.369589 0.240570 197.408524
v -8.766109 0.240571 198.770157
v -11.483767 0.240571 197.978760
v -11.087241 0.240570 196.617126
vt 0.548842 0.892448
vt 0.548842 0.950048
vt 0.519512 0.950050
vt 0.519512 0.892448
vt 0.929487 0.887682
vt 0.958532 0.887682
vt 0.958532 0.945650
vt 0.929487 0.945652
vn -0.0000 -1.0000 -0.0000
s 1
f 3/1/1 2/2/1 1/3/1 4/4/1
f 7/5/1 8/6/1 5/7/1 6/8/1
