# Blender v3.1.2 OBJ File: 'new_maze_obb.blend'
# www.blender.org
o Stonehenge_Stonehenge_East2.008
v 76.993683 0.260531 191.922989
v 77.581062 0.260531 193.257004
v 74.918526 0.260530 194.429321
v 74.331169 0.260531 193.095306
v 80.671921 0.254209 190.808899
v 79.583328 0.254209 188.336502
v 77.127281 0.254210 189.417892
v 78.215858 0.254209 191.890289
vt 0.906926 0.529724
vt 0.936778 0.529724
vt 0.936778 0.589302
vt 0.906926 0.589302
vt 0.787895 0.902137
vt 0.732937 0.902137
vt 0.732937 0.846811
vt 0.787895 0.846811
vn 0.0000 -1.0000 -0.0000
s 1
f 3/1/1 4/2/1 1/3/1 2/4/1
f 7/5/1 6/6/1 5/7/1 8/8/1
