# Blender v3.1.2 OBJ File: 'new_maze_obb.blend'
# www.blender.org
o Stonehenge_Stonehenge_East2.007
v 30.719461 0.254213 206.575409
v 30.873518 0.254216 205.165588
v 22.572699 0.254217 204.258560
v 22.418650 0.254216 205.668350
v 32.078289 0.232540 207.510559
v 31.924236 0.232540 208.920380
v 29.110441 0.232541 208.612915
v 29.264498 0.232541 207.203094
vt 0.789927 0.074414
vt 0.789927 0.245424
vt 0.760882 0.245425
vt 0.760882 0.074415
vt 0.645803 0.907733
vt 0.674848 0.907732
vt 0.674848 0.965700
vt 0.645803 0.965701
vn -0.0000 -1.0000 -0.0000
s 1
f 3/1/1 2/2/1 1/3/1 4/4/1
f 7/5/1 8/6/1 5/7/1 6/8/1
