# Blender v3.1.2 OBJ File: 'new_maze_obb.blend'
# www.blender.org
o Sungod_sungod_sungod-mesh.001
v -205.951538 1.458721 207.347412
v -205.877747 1.555247 207.930664
v -206.185928 1.210131 207.891602
v -206.371429 1.087586 207.505066
v -212.085175 3.506631 208.936600
v -212.102905 3.835408 209.375549
v -212.086807 4.131049 209.169525
v -212.066071 4.025135 208.835297
v -210.467758 3.210559 205.199615
v -208.555084 1.519202 212.203384
v -209.149338 1.749492 212.404755
v -209.455170 1.237238 212.066376
v -209.124542 0.984599 211.747192
v -210.929703 2.629159 211.419861
v -211.383026 3.063291 210.942825
v -211.559387 2.375709 210.465942
v -211.119812 1.903637 210.941940
v -206.442169 1.408574 209.851562
v -206.816803 1.336777 210.503708
v -207.462830 0.791466 209.971329
v -207.004333 0.855193 209.388138
v -211.429581 2.533552 206.340164
v -211.725479 2.723464 207.061707
v -211.431259 3.436314 206.394989
v -209.057693 0.540001 207.891571
v -209.675232 0.576557 208.479492
v -210.439682 0.769998 207.948517
v -209.807312 0.690629 207.339966
v -211.036530 1.310167 210.378250
v -211.542068 1.759462 209.905334
v -207.693237 1.818141 205.336441
v -207.078949 1.425753 205.840759
v -207.672089 1.004440 206.053070
v -208.319565 1.419530 205.564453
v -209.021545 3.158303 204.599442
v -208.331482 2.406179 204.853821
v -208.902405 1.838854 205.055695
v -209.501572 2.581596 204.826950
v -206.762100 2.319761 205.784470
v -210.228592 0.701174 209.111404
v -210.702911 0.926940 209.753662
v -211.326981 1.286349 209.279190
v -210.941895 0.971920 208.615417
v -208.732834 0.603163 210.090012
v -209.273605 0.707018 210.713959
v -209.993134 0.741989 210.234207
v -209.480255 0.582432 209.604584
v -209.724945 0.933048 211.309784
v -209.956375 1.305169 211.826553
v -210.558701 1.533774 211.423370
v -210.392899 1.039743 210.854218
v -207.731247 0.647306 206.933472
v -208.399567 0.562469 207.372879
v -209.097305 0.698785 206.817169
v -208.366623 0.812718 206.401978
v -206.764008 0.833473 207.912659
v -207.170700 0.668945 208.377777
v -207.747208 0.540273 207.892746
v -207.205429 0.686702 207.437012
v -207.645950 0.586428 208.901215
v -208.177719 0.569813 209.477661
v -208.917847 0.514879 208.990402
v -208.333557 0.506102 208.413727
v -210.208969 2.331266 205.179977
v -210.948547 2.389845 205.681458
v -211.057526 3.318204 205.737289
v -209.040512 1.184036 205.897293
v -209.818085 1.047563 206.289658
v -210.501953 1.489784 205.784393
v -209.662170 1.571758 205.394012
v -210.546082 1.056156 206.821152
v -211.144257 1.173522 207.457352
v -211.593933 1.861543 207.142456
v -211.173706 1.635529 206.406082
v -211.988541 3.877400 208.343033
v -205.986725 1.550800 208.564072
v -206.178665 1.486263 209.204880
v -206.645447 0.958680 208.838348
v -206.370575 1.089234 208.327316
v -205.451279 3.647628 209.271561
v -205.803436 2.395545 209.376099
v -205.641418 2.331794 208.627548
v -205.738953 3.612619 210.076752
v -206.093826 3.517992 210.828094
v -206.370300 2.296846 210.850052
v -206.034302 2.369416 210.130707
v -209.749237 1.965421 212.252075
v -210.359802 2.251819 211.892853
v -208.730942 3.627517 212.722443
v -209.864944 3.064842 212.227798
v -209.285721 2.771941 212.567062
v -211.067230 3.764580 211.363281
v -210.501633 3.386906 211.804932
v -211.700043 3.512525 210.493607
v -212.037018 3.398700 209.674850
v -211.849808 2.897565 210.032928
v -207.331665 1.302978 211.148407
v -207.935974 1.349968 211.753555
v -208.591324 0.818197 211.214325
v -208.005844 0.770313 210.590271
v -206.537857 3.432917 211.493530
v -207.058960 3.371866 212.111084
v -207.434464 2.279833 212.075272
v -206.851746 2.247514 211.507278
v -207.608170 3.362885 212.591797
v -208.174805 3.444597 212.817108
v -208.678894 2.548087 212.690353
v -208.054657 2.379375 212.506287
v -211.913086 2.954025 207.764969
v -212.029938 3.216713 208.398575
v -211.527466 1.454198 208.171158
v -211.767181 1.841244 208.863144
v -211.975006 2.525898 208.568649
v -211.836624 2.165397 207.887192
v -211.870590 2.333249 209.490036
v -212.043915 2.937012 209.166885
v -206.569077 1.328928 206.339890
v -206.190933 1.361369 206.834900
v -206.691254 0.976526 207.046722
v -207.131500 0.923740 206.562256
v -205.941193 2.880602 206.235474
v -205.600189 2.818910 206.761414
v -205.867996 1.999695 206.771240
v -206.271896 2.112601 206.275146
v -205.551727 2.169287 207.931137
v -205.670502 2.114068 207.332626
vt 0.397819 0.851731
vt 0.404316 0.856756
vt 0.401296 0.859700
vt 0.395703 0.857793
vt 0.774504 0.304328
vt 0.778623 0.309158
vt 0.776388 0.313306
vt 0.773104 0.311685
vt 0.495645 0.934685
vt 0.504675 0.933503
vt 0.503912 0.941572
vt 0.496834 0.943923
vt 0.357551 0.327296
vt 0.363756 0.336679
vt 0.354232 0.343231
vt 0.347476 0.333998
vt 0.418250 0.881785
vt 0.421179 0.892156
vt 0.410067 0.893720
vt 0.408683 0.883191
vt 0.373460 0.889285
vt 0.373167 0.901420
vt 0.359906 0.903768
vt 0.360195 0.891302
vt 0.339573 0.338759
vt 0.345949 0.348635
vt 0.359628 0.849119
vt 0.371382 0.848146
vt 0.368150 0.856545
vt 0.356192 0.857999
vt 0.701194 0.296882
vt 0.696470 0.285976
vt 0.704792 0.278160
vt 0.708777 0.288907
vt 0.373844 0.913289
vt 0.375282 0.924401
vt 0.363776 0.925790
vt 0.361345 0.915423
vt 0.398811 0.907927
vt 0.399561 0.919601
vt 0.387476 0.922099
vt 0.386464 0.910683
vt 0.400760 0.930014
vt 0.403167 0.937316
vt 0.392771 0.939274
vt 0.389340 0.932187
vt 0.376916 0.866159
vt 0.374778 0.877396
vt 0.362010 0.878852
vt 0.364978 0.867207
vt 0.396226 0.866008
vt 0.397070 0.874889
vt 0.386579 0.875975
vt 0.387205 0.865825
vt 0.397708 0.885002
vt 0.398228 0.896181
vt 0.385981 0.898865
vt 0.386017 0.887164
vt 0.719828 0.285709
vt 0.732459 0.286975
vt 0.733708 0.300273
vt 0.722382 0.298352
vt 0.352652 0.868793
vt 0.349015 0.880700
vt 0.336490 0.882341
vt 0.340841 0.869853
vt 0.347086 0.893410
vt 0.347367 0.905783
vt 0.338780 0.906803
vt 0.335851 0.895300
vt 0.409624 0.864199
vt 0.414256 0.872595
vt 0.406587 0.873985
vt 0.404006 0.866005
vt 0.452182 0.895900
vt 0.462109 0.898522
vt 0.461980 0.916390
vt 0.452467 0.914143
vt 0.348372 0.306942
vt 0.352251 0.316761
vt 0.342269 0.323469
vt 0.339169 0.313297
vt 0.422580 0.903856
vt 0.422580 0.916022
vt 0.411288 0.917604
vt 0.410910 0.905440
vt 0.472367 0.901294
vt 0.483171 0.903981
vt 0.484050 0.920377
vt 0.472694 0.918789
vt 0.493314 0.906015
vt 0.501810 0.906807
vt 0.503948 0.920904
vt 0.494894 0.921134
vt 0.762345 0.274612
vt 0.771190 0.280434
vt 0.770363 0.290186
vt 0.762698 0.284783
vt 0.354190 0.356127
vt 0.361780 0.350510
vt 0.369055 0.355988
vt 0.362907 0.361115
vt 0.381647 0.848011
vt 0.390382 0.849097
vt 0.388025 0.856526
vt 0.378802 0.856188
vt 0.313959 0.311418
vt 0.314067 0.302593
vt 0.325690 0.304265
vt 0.324812 0.313458
vt 0.322591 0.323546
vt 0.335851 0.314893
vt 0.335209 0.325145
vt 0.334667 0.306119
vt 0.347799 0.361310
vt 0.357615 0.366366
vt 0.339916 0.352669
vt 0.751695 0.270246
vt 0.753289 0.280130
vt 0.350366 0.916651
vt 0.354439 0.925780
vt 0.762005 0.296022
vt 0.753542 0.292448
vt 0.769039 0.300007
vt 0.472515 0.933433
vt 0.461482 0.931140
vt 0.484462 0.934896
vt 0.370264 0.344392
vt 0.370215 0.285216
vt 0.372445 0.291845
vt 0.359956 0.299066
vt 0.357161 0.291634
vt 0.345660 0.299289
vt 0.338409 0.305784
vt 0.363936 0.308365
vt 0.442404 0.894321
vt 0.443723 0.912884
vt 0.428356 0.914941
vt 0.435555 0.913103
vt 0.436741 0.925079
vt 0.430313 0.924547
vt 0.444001 0.926722
vt 0.344673 0.858591
vt 0.716280 0.274738
vt 0.729028 0.274003
vt 0.411111 0.928254
vt 0.410691 0.934659
vt 0.347594 0.850437
vt 0.377741 0.933812
vt 0.367316 0.933960
vt 0.335851 0.327440
vt 0.743719 0.289407
vt 0.743811 0.302299
vt 0.742003 0.276523
vt 0.452081 0.928786
vt 0.368354 0.319085
vt 0.373636 0.329264
vt 0.420703 0.926714
vt 0.767755 0.309397
vt 0.776478 0.296259
vt 0.375463 0.359640
vt 0.371167 0.363829
vt 0.323251 0.296678
vt 0.332540 0.298602
vt 0.321600 0.289423
vt 0.330326 0.291991
vn 0.7897 -0.5948 -0.1505
vn 0.8278 -0.5589 0.0486
vn 0.6618 -0.7491 0.0299
vn 0.5663 -0.8198 -0.0856
vn -0.9983 -0.0311 -0.0495
vn -0.9948 0.0199 0.1000
vn -0.9924 0.1219 -0.0146
vn -0.9859 0.1053 -0.1302
vn 0.2363 -0.6045 0.7607
vn -0.1115 -0.4149 0.9030
vn -0.2147 -0.6536 0.7258
vn -0.0054 -0.8568 0.5157
vn -0.7105 -0.1256 0.6924
vn -0.8006 -0.0920 0.5921
vn -0.8611 -0.2589 0.4377
vn -0.7653 -0.3768 0.5218
vn 0.7210 -0.6306 0.2872
vn 0.6303 -0.6801 0.3744
vn 0.3450 -0.9117 0.2232
vn 0.4442 -0.8765 0.1858
vn -0.0773 -0.9942 -0.0750
vn -0.1652 -0.9861 -0.0186
vn -0.3438 -0.9349 -0.0881
vn -0.2101 -0.9592 -0.1891
vn -0.6669 -0.6759 0.3136
vn -0.8312 -0.4906 0.2618
vn 0.3372 -0.4421 -0.8312
vn 0.4398 -0.5355 -0.7210
vn 0.1564 -0.8122 -0.5620
vn 0.0716 -0.7159 -0.6946
vn -0.1046 -0.1200 -0.9873
vn 0.2255 -0.3295 -0.9168
vn -0.0202 -0.5702 -0.8212
vn -0.2519 -0.2501 -0.9349
vn -0.2923 -0.9553 0.0445
vn -0.4681 -0.8723 0.1411
vn -0.6941 -0.7117 0.1082
vn -0.5135 -0.8580 0.0074
vn 0.0323 -0.9904 0.1345
vn -0.0889 -0.9755 0.2012
vn -0.2659 -0.9496 0.1657
vn -0.1245 -0.9889 0.0814
vn -0.2822 -0.8952 0.3448
vn -0.4767 -0.6044 0.6383
vn -0.6420 -0.4998 0.5814
vn -0.4764 -0.8140 0.3323
vn 0.1343 -0.9617 -0.2391
vn -0.0012 -0.9897 -0.1430
vn -0.1090 -0.9472 -0.3016
vn -0.0121 -0.9056 -0.4240
vn 0.4343 -0.9005 -0.0206
vn 0.3135 -0.9486 0.0440
vn 0.1326 -0.9903 -0.0406
vn 0.2898 -0.9494 -0.1207
vn 0.1999 -0.9761 0.0849
vn 0.1151 -0.9877 0.1059
vn -0.0339 -0.9988 0.0353
vn 0.0347 -0.9994 0.0018
vn -0.4360 -0.2826 -0.8544
vn -0.6865 -0.2241 -0.6917
vn -0.7533 0.0697 -0.6539
vn -0.5414 0.0338 -0.8401
vn -0.0713 -0.8338 -0.5475
vn -0.2139 -0.8818 -0.4203
vn -0.4526 -0.6528 -0.6075
vn -0.2100 -0.6635 -0.7181
vn -0.4073 -0.8634 -0.2978
vn -0.6101 -0.7709 -0.1829
vn -0.8652 -0.4184 -0.2764
vn -0.7066 -0.5549 -0.4391
vn 0.8125 -0.5547 0.1791
vn 0.7818 -0.5817 0.2246
vn 0.5422 -0.8284 0.1403
vn 0.6163 -0.7822 0.0915
vn 0.9043 -0.2583 0.3399
vn 0.8568 -0.2495 0.4512
vn 0.8128 -0.3498 0.4657
vn 0.8805 -0.3288 0.3415
vn -0.4614 -0.2246 0.8583
vn -0.6171 -0.1536 0.7717
vn 0.5265 -0.7055 0.4744
vn 0.4100 -0.6885 0.5982
vn 0.1506 -0.9216 0.3578
vn 0.2558 -0.9289 0.2677
vn 0.7791 -0.2519 0.5741
vn 0.6789 -0.2664 0.6842
vn 0.5825 -0.3905 0.7129
vn 0.7104 -0.3754 0.5953
vn 0.4770 -0.2476 0.8433
vn 0.0890 -0.1199 0.9888
vn -0.0159 -0.2273 0.9737
vn 0.3626 -0.3652 0.8574
vn -0.7765 -0.6270 -0.0625
vn -0.8853 -0.4632 0.0427
vn -0.9762 -0.2116 -0.0474
vn -0.9442 -0.2946 -0.1476
vn -0.9353 -0.3054 0.1785
vn -0.9246 -0.1659 0.3429
vn -0.9694 -0.0800 0.2322
vn -0.9854 -0.1560 0.0685
vn 0.5753 -0.5959 -0.5604
vn 0.6918 -0.6222 -0.3665
vn 0.4551 -0.8640 -0.2153
vn 0.3253 -0.8714 -0.3673
vn 0.6877 -0.2601 -0.6778
vn 0.8431 -0.3056 -0.4424
vn 0.8223 -0.3601 -0.4407
vn 0.6741 -0.3017 -0.6743
vn 0.5743 -0.2478 -0.7803
vn -0.9761 -0.0397 -0.2135
vn -0.9467 -0.0717 -0.3140
vn -0.9903 -0.0312 -0.1355
vn -0.8723 -0.0413 0.4873
vn -0.2829 0.0471 0.9580
vn -0.3672 -0.0390 0.9293
vn -0.5120 0.0382 0.8582
vn 0.9214 -0.2699 0.2797
vn 0.9074 -0.3258 0.2653
vn 0.9252 -0.3775 0.0383
vn 0.9128 -0.3442 0.2196
vn -0.8691 -0.1392 -0.4746
vn -0.8896 0.1050 -0.4446
vn -0.5830 0.0189 0.8123
vn -0.6932 0.0187 0.7205
vn -0.9722 0.1131 -0.2051
vn 0.9070 -0.3724 -0.1967
s 1
f 1/1/1 2/2/2 3/3/3 4/4/4
f 5/5/5 6/6/6 7/7/7 8/8/8
f 10/9/9 11/10/10 12/11/11 13/12/12
f 14/13/13 15/14/14 16/15/15 17/16/16
f 18/17/17 19/18/18 20/19/19 21/20/20
f 25/21/21 26/22/22 27/23/23 28/24/24
f 29/25/25 17/16/16 16/15/15 30/26/26
f 31/27/27 32/28/28 33/29/29 34/30/30
f 35/31/31 36/32/32 37/33/33 38/34/34
f 40/35/35 41/36/36 42/37/37 43/38/38
f 44/39/39 45/40/40 46/41/41 47/42/42
f 48/43/43 49/44/44 50/45/45 51/46/46
f 52/47/47 53/48/48 54/49/49 55/50/50
f 56/51/51 57/52/52 58/53/53 59/54/54
f 60/55/55 61/56/56 62/57/57 63/58/58
f 64/59/59 65/60/60 66/61/61 9/62/62
f 67/63/63 68/64/64 69/65/65 70/66/66
f 71/67/67 72/68/68 73/69/69 74/70/70
f 76/71/71 77/72/72 78/73/73 79/74/74
f 83/75/75 84/76/76 85/77/77 86/78/78
f 87/79/79 88/80/80 50/81/45 49/82/44
f 97/83/81 98/84/82 99/85/83 100/86/84
f 101/87/85 102/88/86 103/89/87 104/90/88
f 105/91/89 106/92/90 107/93/91 108/94/92
f 111/95/93 112/96/94 113/97/95 114/98/96
f 115/99/97 96/100/98 95/101/99 116/102/100
f 117/103/101 118/104/102 119/105/103 120/106/104
f 121/107/105 122/108/106 123/109/107 124/110/108
f 32/28/28 117/103/101 120/106/104 33/29/29
f 39/111/109 124/110/108 117/112/101 32/113/28
f 124/110/108 123/109/107 118/114/102 117/112/101
f 112/115/94 115/99/97 116/102/100 113/116/95
f 42/117/37 30/26/26 115/99/97 112/115/94
f 30/26/26 16/15/15 96/100/98 115/99/97
f 72/118/68 111/95/93 114/98/96 73/119/69
f 27/23/23 43/38/38 111/120/93 72/68/68
f 43/38/38 42/37/37 112/121/94 111/120/93
f 73/119/69 114/98/96 109/122/110 23/123/111
f 114/98/96 113/97/95 110/124/112 109/122/110
f 102/88/86 105/91/89 108/94/92 103/89/87
f 84/76/76 101/87/85 104/90/88 85/77/77
f 19/18/18 97/83/81 100/86/84 20/19/19
f 85/77/77 104/90/88 97/125/81 19/126/18
f 104/90/88 103/89/87 98/127/82 97/125/81
f 15/14/14 94/128/113 96/100/98 16/15/15
f 106/129/90 89/130/114 91/131/115 107/132/91
f 11/133/10 87/79/79 49/82/44 12/134/11
f 107/132/91 91/131/115 87/79/79 11/133/10
f 91/131/115 90/135/116 88/80/80 87/79/79
f 80/136/117 83/75/75 86/78/78 81/137/118
f 2/2/2 76/71/71 79/74/74 3/3/3
f 125/138/119 82/139/120 76/140/71 2/141/2
f 82/139/120 81/137/118 77/142/72 76/140/71
f 68/64/64 71/67/67 74/70/70 69/65/65
f 54/49/49 28/24/24 71/67/67 68/64/64
f 28/24/24 27/23/23 72/68/68 71/67/67
f 34/30/30 67/63/63 70/66/66 37/143/33
f 33/29/29 55/50/50 67/63/63 34/30/30
f 55/50/50 54/49/49 68/64/64 67/63/63
f 37/33/33 70/144/66 64/59/59 38/34/34
f 70/144/66 69/145/65 65/60/60 64/59/59
f 57/52/52 60/55/55 63/58/58 58/53/53
f 78/73/73 21/20/20 60/55/55 57/52/52
f 21/20/20 20/19/19 61/56/56 60/55/55
f 4/4/4 56/51/51 59/54/54 119/105/103
f 3/3/3 79/74/74 56/51/51 4/4/4
f 79/74/74 78/73/73 57/52/52 56/51/51
f 120/106/104 52/47/47 55/50/50 33/29/29
f 119/105/103 59/54/54 52/47/47 120/106/104
f 59/54/54 58/53/53 53/48/48 52/47/47
f 45/40/40 48/43/43 51/46/46 46/41/41
f 99/85/83 13/146/12 48/43/43 45/40/40
f 13/146/12 12/147/11 49/44/44 48/43/43
f 61/56/56 44/39/39 47/42/42 62/57/57
f 20/19/19 100/86/84 44/39/39 61/56/56
f 100/86/84 99/85/83 45/40/40 44/39/39
f 26/22/22 40/35/35 43/38/38 27/23/23
f 62/57/57 47/42/42 40/35/35 26/22/22
f 47/42/42 46/41/41 41/36/36 40/35/35
f 36/148/32 31/27/27 34/30/30 37/143/33
f 41/36/36 29/149/25 30/150/26 42/37/37
f 46/41/41 51/46/46 29/149/25 41/36/36
f 51/151/46 50/81/45 17/16/16 29/25/25
f 53/48/48 25/21/21 28/24/24 54/49/49
f 58/53/53 63/58/58 25/21/21 53/48/48
f 63/58/58 62/57/57 26/22/22 25/21/21
f 65/60/60 22/152/121 24/153/122 66/61/61
f 69/145/65 74/154/70 22/152/121 65/60/60
f 74/154/70 73/119/69 23/123/111 22/152/121
f 77/72/72 18/17/17 21/20/20 78/73/73
f 81/137/118 86/78/78 18/155/17 77/142/72
f 86/78/78 85/77/77 19/126/18 18/155/17
f 88/80/80 14/13/13 17/16/16 50/81/45
f 90/135/116 93/156/123 14/13/13 88/80/80
f 93/156/123 92/157/124 15/14/14 14/13/13
f 98/84/82 10/158/9 13/146/12 99/85/83
f 103/89/87 108/94/92 10/9/9 98/127/82
f 108/94/92 107/93/91 11/10/10 10/9/9
f 110/124/112 5/5/5 8/8/8 75/159/125
f 113/97/95 116/160/100 5/5/5 110/124/112
f 116/102/100 95/101/99 6/161/6 5/162/5
f 118/104/102 1/1/1 4/4/4 119/105/103
f 123/109/107 126/163/126 1/164/1 118/114/102
f 126/163/126 125/165/119 2/166/2 1/164/1
