# Blender v3.1.2 OBJ File: 'new_maze_obb.blend'
# www.blender.org
o wall_obb.049_Mesh.054
v 92.744637 4.508093 -167.238312
v 92.744659 4.508093 -168.938980
v 92.744637 4.508093 -170.639572
v 92.744637 4.508093 -172.340164
v 92.744659 4.508093 -174.040909
v 92.744637 4.508093 -175.741455
v 92.744637 4.508093 -177.442139
v 92.744637 4.508093 -179.142761
v 92.744659 4.508093 -180.843384
v 92.744637 4.508093 -182.544067
v 92.244606 4.508093 -167.238312
v 92.244629 4.508093 -168.938980
v 92.244606 4.508093 -170.639572
v 92.244606 4.508093 -172.340164
v 92.244629 4.508093 -174.040909
v 92.244606 4.508093 -175.741455
v 92.244606 4.508093 -177.442139
v 92.244606 4.508093 -179.142761
v 92.244629 4.508093 -180.843384
v 92.244606 4.508093 -182.544067
vt 319.976868 -114.838928
vt 319.606445 -114.838928
vt 319.235107 -114.838928
vt 318.864685 -114.838928
vt 318.493347 -114.838928
vt 318.122986 -114.838928
vt 317.751709 -114.838928
vt 317.380249 -114.838928
vt 317.009888 -114.838928
vt 316.638550 -114.838928
vt 316.638550 -114.942688
vt 317.009888 -114.942688
vt 317.380249 -114.942688
vt 317.751709 -114.942688
vt 318.122986 -114.942688
vt 318.493347 -114.942688
vt 318.864685 -114.942688
vt 319.235107 -114.942688
vt 319.606445 -114.942688
vt 319.976868 -114.942688
vn 0.0000 1.0000 0.0000
s off
f 1/1/1 2/2/1 3/3/1 4/4/1 5/5/1 6/6/1 7/7/1 8/8/1 9/9/1 10/10/1 20/11/1 19/12/1 18/13/1 17/14/1 16/15/1 15/16/1 14/17/1 13/18/1 12/19/1 11/20/1
