# Blender v3.1.2 OBJ File: 'maze_ver2_obb@10x.blend'
# www.blender.org
mtllib wall_obb.112.mtl
o wall_obb.112_Mesh.117
v 46.827446 4.508093 -75.403915
v 46.827511 4.508093 -77.104576
v 46.827469 4.508093 -78.805214
v 46.827469 4.508093 -80.505783
v 46.827492 4.508093 -82.206482
v 46.827469 4.508093 -83.907120
v 46.827469 4.508093 -85.607727
v 46.827469 4.508093 -87.308388
v 46.827469 4.508093 -89.009026
v 46.827469 4.508093 -90.709641
v 46.327442 4.508093 -75.403931
v 46.327480 4.508093 -77.104576
v 46.327442 4.508093 -78.805206
v 46.327442 4.508093 -80.505791
v 46.327461 4.508093 -82.206482
v 46.327442 4.508093 -83.907104
v 46.327442 4.508093 -85.607727
v 46.327442 4.508093 -87.308388
v 46.327442 4.508093 -89.009026
v 46.327442 4.508093 -90.709641
vt 316.535583 -135.125412
vt 316.906433 -135.125412
vt 317.277222 -135.125412
vt 317.648132 -135.125412
vt 318.018860 -135.125412
vt 318.389771 -135.125412
vt 318.760864 -135.125412
vt 319.131714 -135.125412
vt 319.502563 -135.125412
vt 319.873352 -135.125412
vt 319.873352 -135.021698
vt 319.502563 -135.021698
vt 319.131714 -135.021698
vt 318.760864 -135.021698
vt 318.389771 -135.021698
vt 318.018860 -135.021698
vt 317.648132 -135.021698
vt 317.277222 -135.021698
vt 316.906433 -135.021698
vt 316.535583 -135.021698
vn 0.0000 1.0000 0.0000
usemtl Material.012
s off
f 1/1/1 2/2/1 3/3/1 4/4/1 5/5/1 6/6/1 7/7/1 8/8/1 9/9/1 10/10/1 20/11/1 19/12/1 18/13/1 17/14/1 16/15/1 15/16/1 14/17/1 13/18/1 12/19/1 11/20/1
