# Blender v3.1.2 OBJ File: 'new_maze_obb.blend'
# www.blender.org
o wall_obb.159_Mesh.164
v 123.356094 4.508093 16.430475
v 133.559937 4.508093 16.430475
v 143.763794 4.508093 16.430475
v 153.967514 4.508093 16.430475
v 164.171432 4.508093 16.430475
v 168.773270 4.508093 16.430475
v 123.356094 4.508093 15.930448
v 133.559937 4.508093 15.930448
v 143.763794 4.508093 15.930448
v 153.967514 4.508093 15.930448
v 164.171432 4.508093 15.930448
v 168.773270 4.508093 15.930448
vt -245.630615 397.628723
vt -242.913101 416.933289
vt -474.685852 188.682648
vt -472.570251 188.682648
vt -470.454590 188.682648
vt -468.338989 188.682648
vt -466.223328 188.682648
vt -466.223328 188.791550
vt -468.339050 188.791550
vt -470.454590 188.791550
vt -472.570312 188.791550
vt -474.685852 188.791550
vn 0.0000 1.0000 -0.0000
s off
f 6/1/1 12/2/1 11/3/1 10/4/1 9/5/1 8/6/1 7/7/1 1/8/1 2/9/1 3/10/1 4/11/1 5/12/1
