# Blender v3.1.2 OBJ File: 'maze_ver2_obb@10x.blend'
# www.blender.org
mtllib wall_obb.279.mtl
o wall_obb.279_Mesh.284
v 153.967514 4.508093 123.570587
v 153.967575 4.508093 92.959129
v 153.967575 4.508093 120.169312
v 153.967575 4.508093 116.768044
v 153.967514 4.508093 113.366791
v 153.967606 4.508093 109.965500
v 153.967575 4.508093 106.564224
v 153.967575 4.508093 103.162964
v 153.967575 4.508093 99.761696
v 153.967575 4.508093 96.360397
v 153.467545 4.508093 123.570587
v 153.467545 4.508093 120.169312
v 153.467545 4.508093 116.768044
v 153.467484 4.508093 113.366791
v 153.467575 4.508093 109.965500
v 153.467545 4.508093 106.564224
v 153.467545 4.508093 103.162964
v 153.467545 4.508093 99.761696
v 153.467545 4.508093 96.360397
v 153.467545 4.508093 92.959129
vt 85.725853 -20.945795
vt 84.984138 -20.945795
vt 84.242371 -20.945795
vt 83.500580 -20.945795
vt 82.758781 -20.945805
vt 82.017044 -20.945805
vt 81.275314 -20.945795
vt 80.533455 -20.945805
vt 79.791656 -20.945805
vt 79.049973 -20.945795
vt 79.049973 -21.049547
vt 79.791656 -21.049547
vt 80.533463 -21.049547
vt 81.275314 -21.049547
vt 82.017052 -21.049547
vt 82.758789 -21.049547
vt 83.500580 -21.049547
vt 84.242371 -21.049547
vt 84.984138 -21.049547
vt 85.725853 -21.049547
vn 0.0000 1.0000 0.0000
usemtl Material.012
s off
f 1/1/1 3/2/1 4/3/1 5/4/1 6/5/1 7/6/1 8/7/1 9/8/1 10/9/1 2/10/1 20/11/1 19/12/1 18/13/1 17/14/1 16/15/1 15/16/1 14/17/1 13/18/1 12/19/1 11/20/1
