# Blender v3.1.2 OBJ File: 'new_maze_obb.blend'
# www.blender.org
o wall_obb.094_Mesh.099
v 79.139572 4.508093 -121.321106
v 80.840210 4.508093 -121.321121
v 82.540779 4.508093 -121.321075
v 84.241470 4.508093 -121.321106
v 85.942116 4.508093 -121.321106
v 87.642731 4.508093 -121.321106
v 89.343376 4.508093 -121.321106
v 91.044022 4.508093 -121.321106
v 92.744637 4.508093 -121.321106
v 77.438911 4.508093 -121.321106
v 77.438911 4.508093 -121.821129
v 79.139565 4.508093 -121.821129
v 80.840210 4.508093 -121.821152
v 82.540779 4.508093 -121.821106
v 84.241470 4.508093 -121.821129
v 85.942116 4.508093 -121.821129
v 87.642731 4.508093 -121.821129
v 89.343376 4.508093 -121.821129
v 91.044022 4.508093 -121.821129
v 92.744637 4.508093 -121.821129
vt 343.306580 -343.858948
vt 342.954224 -343.858948
vt 342.601196 -343.858948
vt 342.248779 -343.858948
vt 341.896362 -343.858948
vt 341.543396 -343.858948
vt 341.190979 -343.858948
vt 340.838562 -343.858948
vt 340.485596 -343.858948
vt 340.133240 -343.858948
vt 340.133240 -343.967834
vt 340.485596 -343.967834
vt 340.838562 -343.967834
vt 341.190979 -343.967834
vt 341.543396 -343.967834
vt 341.896362 -343.967834
vt 342.248779 -343.967834
vt 342.601196 -343.967834
vt 342.954224 -343.967834
vt 343.306580 -343.967834
vn 0.0000 1.0000 -0.0000
s off
f 10/1/1 1/2/1 2/3/1 3/4/1 4/5/1 5/6/1 6/7/1 7/8/1 8/9/1 9/10/1 20/11/1 19/12/1 18/13/1 17/14/1 16/15/1 15/16/1 14/17/1 13/18/1 12/19/1 11/20/1
