# Blender v3.1.2 OBJ File: 'new_maze_obb.blend'
# www.blender.org
o wall_obb.276_Mesh.281
v 92.744637 4.508093 215.404968
v 92.744637 4.508093 200.099258
v 92.744659 4.508093 213.704346
v 92.744637 4.508093 212.003708
v 92.744637 4.508093 210.303070
v 92.744659 4.508093 208.602448
v 92.744637 4.508093 206.901825
v 92.744637 4.508093 205.201187
v 92.744637 4.508093 203.500519
v 92.744659 4.508093 201.799896
v 92.244606 4.508093 215.404968
v 92.244629 4.508093 213.704346
v 92.244606 4.508093 212.003708
v 92.244606 4.508093 210.303070
v 92.244629 4.508093 208.602448
v 92.244606 4.508093 206.901825
v 92.244606 4.508093 205.201187
v 92.244606 4.508093 203.500519
v 92.244629 4.508093 201.799896
v 92.244606 4.508093 200.099258
vt -459.315857 -322.803833
vt -459.686707 -322.803833
vt -460.057495 -322.803833
vt -460.428284 -322.803833
vt -460.799255 -322.803833
vt -461.170166 -322.803833
vt -461.540955 -322.803833
vt -461.911865 -322.803833
vt -462.282715 -322.803833
vt -462.653625 -322.803833
vt -462.653625 -322.907593
vt -462.282715 -322.907593
vt -461.911865 -322.907593
vt -461.540955 -322.907593
vt -461.170166 -322.907593
vt -460.799255 -322.907593
vt -460.428284 -322.907593
vt -460.057495 -322.907593
vt -459.686707 -322.907593
vt -459.315857 -322.907593
vn 0.0000 1.0000 0.0000
s off
f 1/1/1 3/2/1 4/3/1 5/4/1 6/5/1 7/6/1 8/7/1 9/8/1 10/9/1 2/10/1 20/11/1 19/12/1 18/13/1 17/14/1 16/15/1 15/16/1 14/17/1 13/18/1 12/19/1 11/20/1
