# Blender v3.1.2 OBJ File: 'new_maze_obb.blend'
# www.blender.org
o wall_obb.055_Mesh.060
v -228.675720 4.508093 -121.321106
v -226.975067 4.508093 -121.321106
v -225.274429 4.508093 -121.321121
v -223.573792 4.508093 -121.321075
v -221.873169 4.508093 -121.321106
v -220.172516 4.508093 -121.321106
v -218.471893 4.508093 -121.321106
v -216.771240 4.508093 -121.321106
v -215.070633 4.508093 -121.321106
v -213.369980 4.508093 -121.321106
v -228.675720 4.508093 -121.821129
v -226.975067 4.508093 -121.821129
v -225.274429 4.508093 -121.821152
v -223.573792 4.508093 -121.821106
v -221.873169 4.508093 -121.821129
v -220.172516 4.508093 -121.821129
v -218.471893 4.508093 -121.821129
v -216.771240 4.508093 -121.821129
v -215.070633 4.508093 -121.821129
v -213.369980 4.508093 -121.821129
vt 272.300659 -343.968079
vt 272.654114 -343.968079
vt 273.006409 -343.968079
vt 273.358826 -343.968079
vt 273.711243 -343.968079
vt 274.063660 -343.968079
vt 274.416138 -343.968079
vt 274.769653 -343.968079
vt 275.122070 -343.968079
vt 275.474426 -343.968079
vt 275.474487 -343.858948
vt 275.122070 -343.858948
vt 274.769592 -343.858948
vt 274.416138 -343.858948
vt 274.063660 -343.858948
vt 273.711304 -343.858948
vt 273.358887 -343.858948
vt 273.006348 -343.858948
vt 272.654175 -343.858948
vt 272.300598 -343.858948
vn 0.0000 1.0000 0.0000
s off
f 1/1/1 2/2/1 3/3/1 4/4/1 5/5/1 6/6/1 7/7/1 8/8/1 9/9/1 10/10/1 20/11/1 19/12/1 18/13/1 17/14/1 16/15/1 15/16/1 14/17/1 13/18/1 12/19/1 11/20/1
