# Blender v3.1.2 OBJ File: 'new_maze_obb.blend'
# www.blender.org
o wall_obb.091_Mesh.096
v 46.827469 4.508093 -121.321106
v 46.827511 4.508093 -123.021767
v 46.827469 4.508093 -124.722443
v 46.827469 4.508093 -126.422989
v 46.827492 4.508093 -128.123657
v 46.827469 4.508093 -129.824326
v 46.827469 4.508093 -131.524902
v 46.827469 4.508093 -133.225540
v 46.827469 4.508093 -134.926208
v 46.827469 4.508093 -136.626831
v 46.327442 4.508093 -121.321114
v 46.327480 4.508093 -123.021767
v 46.327442 4.508093 -124.722435
v 46.327442 4.508093 -126.422989
v 46.327461 4.508093 -128.123657
v 46.327442 4.508093 -129.824326
v 46.327442 4.508093 -131.524902
v 46.327442 4.508093 -133.225540
v 46.327442 4.508093 -134.926208
v 46.327442 4.508093 -136.626831
vt 315.277222 301.885956
vt 315.648010 301.885956
vt 316.018921 301.886017
vt 316.389893 301.886017
vt 316.760742 301.886017
vt 317.131592 301.886017
vt 317.502502 301.885956
vt 317.873413 301.886017
vt 318.244141 301.886017
vt 318.615295 301.885956
vt 318.615295 301.989716
vt 318.244141 301.989716
vt 317.873413 301.989716
vt 317.502502 301.989716
vt 317.131592 301.989716
vt 316.760742 301.989716
vt 316.389893 301.989716
vt 316.018921 301.989716
vt 315.648010 301.989655
vt 315.277222 301.989716
vn 0.0000 1.0000 0.0000
s off
f 1/1/1 2/2/1 3/3/1 4/4/1 5/5/1 6/6/1 7/7/1 8/8/1 9/9/1 10/10/1 20/11/1 19/12/1 18/13/1 17/14/1 16/15/1 15/16/1 14/17/1 13/18/1 12/19/1 11/20/1
