# Blender v3.1.2 OBJ File: 'maze_ver2_obb@10x.blend'
# www.blender.org
mtllib wall_obb.173.mtl
o wall_obb.173_Mesh.178
v 92.744637 4.508093 123.570587
v 92.744659 4.508093 116.768028
v 92.744637 4.508093 109.965485
v 92.744637 4.508093 103.162979
v 92.744659 4.508093 96.360390
v 92.744637 4.508093 89.557846
v 92.744637 4.508093 82.755310
v 92.744637 4.508093 75.952766
v 92.744659 4.508093 69.150215
v 92.744637 4.508093 62.347672
v 92.244606 4.508093 123.570587
v 92.244629 4.508093 116.768028
v 92.244606 4.508093 109.965485
v 92.244606 4.508093 103.162979
v 92.244629 4.508093 96.360390
v 92.244606 4.508093 89.557846
v 92.244606 4.508093 82.755310
v 92.244606 4.508093 75.952766
v 92.244629 4.508093 69.150215
v 92.244606 4.508093 62.347672
vt -52.762493 55.394810
vt -54.246067 55.394810
vt -55.729603 55.394810
vt -57.213150 55.394810
vt -58.696697 55.394810
vt -60.180260 55.394810
vt -61.663807 55.394810
vt -63.147331 55.394810
vt -64.630920 55.394810
vt -66.114479 55.394810
vt -66.114479 55.291058
vt -64.630920 55.291058
vt -63.147331 55.291058
vt -61.663807 55.291058
vt -60.180260 55.291058
vt -58.696697 55.291058
vt -57.213150 55.291058
vt -55.729603 55.291058
vt -54.246067 55.291058
vt -52.762493 55.291058
vn 0.0000 1.0000 0.0000
usemtl Material.012
s off
f 1/1/1 2/2/1 3/3/1 4/4/1 5/5/1 6/6/1 7/7/1 8/8/1 9/9/1 10/10/1 20/11/1 19/12/1 18/13/1 17/14/1 16/15/1 15/16/1 14/17/1 13/18/1 12/19/1 11/20/1
