# Blender v3.1.2 OBJ File: 'new_maze_obb.blend'
# www.blender.org
o wall_obb.072_Mesh.077
v -152.147064 4.508093 -121.321106
v -150.446442 4.508093 -121.321106
v -148.745789 4.508093 -121.321121
v -147.045166 4.508093 -121.321075
v -145.344528 4.508093 -121.321106
v -143.643875 4.508093 -121.321106
v -141.943237 4.508093 -121.321106
v -140.242599 4.508093 -121.321106
v -138.541962 4.508093 -121.321106
v -136.841339 4.508093 -121.321106
v -152.147064 4.508093 -121.821129
v -150.446442 4.508093 -121.821129
v -148.745789 4.508093 -121.821152
v -147.045166 4.508093 -121.821106
v -145.344528 4.508093 -121.821129
v -143.643875 4.508093 -121.821129
v -141.943237 4.508093 -121.821129
v -140.242599 4.508093 -121.821129
v -138.541962 4.508093 -121.821129
v -136.841339 4.508093 -121.821129
vt -96.156319 -341.355316
vt -95.803947 -341.355316
vt -95.451004 -341.355316
vt -95.098557 -341.355255
vt -94.746101 -341.355255
vt -94.393211 -341.355255
vt -94.040741 -341.355255
vt -93.688316 -341.355255
vt -93.335388 -341.355255
vt -92.982925 -341.355255
vt -92.982925 -341.246124
vt -93.335388 -341.246124
vt -93.688316 -341.246185
vt -94.040741 -341.246185
vt -94.393211 -341.246124
vt -94.746101 -341.246124
vt -95.098557 -341.246124
vt -95.451004 -341.246185
vt -95.803947 -341.246124
vt -96.156319 -341.246185
vn 0.0000 1.0000 0.0000
s off
f 1/1/1 2/2/1 3/3/1 4/4/1 5/5/1 6/6/1 7/7/1 8/8/1 9/9/1 10/10/1 20/11/1 19/12/1 18/13/1 17/14/1 16/15/1 15/16/1 14/17/1 13/18/1 12/19/1 11/20/1
