# Blender v3.1.2 OBJ File: 'new_maze_obb.blend'
# www.blender.org
o wall_obb.234_Mesh.239
v -45.006966 4.508093 215.404968
v -45.006947 4.508093 205.201187
v -45.006947 4.508093 194.997330
v -45.006947 4.508093 184.793518
v -45.006947 4.508093 174.589691
v -45.006947 4.508093 164.385864
v -45.006947 4.508093 154.182053
v -45.006947 4.508093 143.978241
v -45.006947 4.508093 133.774429
v -45.006947 4.508093 123.570587
v -45.506973 4.508093 215.404968
v -45.506973 4.508093 205.201187
v -45.506973 4.508093 194.997330
v -45.506973 4.508093 184.793518
v -45.506973 4.508093 174.589691
v -45.506973 4.508093 164.385864
v -45.506973 4.508093 154.182053
v -45.506973 4.508093 143.978241
v -45.506973 4.508093 133.774429
v -45.506973 4.508093 123.570587
vt -207.155396 455.542358
vt -209.380646 455.542358
vt -211.606110 455.542358
vt -213.831360 455.542358
vt -216.056763 455.542358
vt -218.282013 455.542358
vt -220.507477 455.542358
vt -222.732635 455.542358
vt -224.958069 455.542358
vt -227.183350 455.542358
vt -227.183273 455.438660
vt -224.958130 455.438660
vt -222.732681 455.438660
vt -220.507431 455.438660
vt -218.281967 455.438660
vt -216.056763 455.438660
vt -213.831360 455.438660
vt -211.606110 455.438660
vt -209.380646 455.438660
vt -207.155396 455.438660
vn 0.0000 1.0000 0.0000
s off
f 1/1/1 2/2/1 3/3/1 4/4/1 5/5/1 6/6/1 7/7/1 8/8/1 9/9/1 10/10/1 20/11/1 19/12/1 18/13/1 17/14/1 16/15/1 15/16/1 14/17/1 13/18/1 12/19/1 11/20/1
