# Blender v3.1.2 OBJ File: 'maze_ver2_obb@10x.blend'
# www.blender.org
mtllib wall_obb.095.mtl
o wall_obb.095_Mesh.100
v 123.356094 4.508093 -121.321106
v 125.056763 4.508093 -121.321106
v 126.757431 4.508093 -121.321121
v 128.457977 4.508093 -121.321075
v 130.158661 4.508093 -121.321106
v 131.859314 4.508093 -121.321106
v 133.559891 4.508093 -121.321106
v 135.260544 4.508093 -121.321106
v 136.961212 4.508093 -121.321106
v 138.661819 4.508093 -121.321106
v 123.356094 4.508093 -121.821129
v 125.056763 4.508093 -121.821129
v 126.757431 4.508093 -121.821152
v 128.457977 4.508093 -121.821106
v 130.158661 4.508093 -121.821129
v 131.859314 4.508093 -121.821129
v 133.559891 4.508093 -121.821129
v 135.260544 4.508093 -121.821129
v 136.961212 4.508093 -121.821129
v 138.661819 4.508093 -121.821129
vt -439.781250 -341.344482
vt -439.428528 -341.344482
vt -439.076111 -341.344482
vt -438.723389 -341.344482
vt -438.370667 -341.344482
vt -438.018311 -341.344482
vt -437.665649 -341.344482
vt -437.312927 -341.344482
vt -436.960510 -341.344482
vt -436.607788 -341.344482
vt -436.607788 -341.235382
vt -436.960510 -341.235382
vt -437.312927 -341.235382
vt -437.665649 -341.235382
vt -438.018311 -341.235382
vt -438.370667 -341.235382
vt -438.723389 -341.235382
vt -439.076111 -341.235382
vt -439.428528 -341.235382
vt -439.781250 -341.235382
vn 0.0000 1.0000 -0.0000
usemtl Material.012
s off
f 1/1/1 2/2/1 3/3/1 4/4/1 5/5/1 6/6/1 7/7/1 8/8/1 9/9/1 10/10/1 20/11/1 19/12/1 18/13/1 17/14/1 16/15/1 15/16/1 14/17/1 13/18/1 12/19/1 11/20/1
