# Blender v3.1.2 OBJ File: 'new_maze_obb.blend'
# www.blender.org
o wall_obb.086_Mesh.091
v -53.510128 4.508093 -121.321106
v -46.707558 4.508093 -121.321121
v -39.905060 4.508093 -121.321075
v -33.102478 4.508093 -121.321106
v -26.299953 4.508093 -121.321106
v -19.497391 4.508093 -121.321106
v -12.694846 4.508093 -121.321106
v -5.892303 4.508093 -121.321106
v 0.910239 4.508093 -121.321106
v -53.510128 4.508093 -121.821129
v -46.707558 4.508093 -121.821152
v -39.905060 4.508093 -121.821106
v -33.102478 4.508093 -121.821129
v -26.299953 4.508093 -121.821129
v -19.497391 4.508093 -121.821129
v -12.694846 4.508093 -121.821129
v -5.892303 4.508093 -121.821129
v 0.910239 4.508093 -121.821129
v -60.239250 4.508093 -121.321037
v -60.223843 4.508093 -121.821129
vt 24.560839 130.405060
vt -284.555206 36.864502
vt -283.160217 36.864502
vt -281.749451 36.864502
vt -280.339233 36.864502
vt -278.929016 36.864502
vt -277.518311 36.864502
vt -276.108032 36.864502
vt -274.697815 36.864502
vt -273.287048 36.864502
vt -271.876831 36.864502
vt -271.876831 36.973637
vt -273.287048 36.973637
vt -274.697815 36.973637
vt -276.108032 36.973637
vt -277.518311 36.973637
vt -278.929016 36.973637
vt -280.339233 36.973637
vt -281.749451 36.973637
vt -283.160217 36.973637
vn 0.0000 1.0000 -0.0000
s off
f 20/1/1 19/2/1 1/3/1 2/4/1 3/5/1 4/6/1 5/7/1 6/8/1 7/9/1 8/10/1 9/11/1 18/12/1 17/13/1 16/14/1 15/15/1 14/16/1 13/17/1 12/18/1 11/19/1 10/20/1
