# Blender v3.1.2 OBJ File: 'maze_ver2_obb@10x.blend'
# www.blender.org
mtllib wall_obb.016.mtl
o wall_obb.016_Mesh.021
v -121.535583 4.508093 -197.849762
v -114.733032 4.508093 -197.849762
v -107.930489 4.508093 -197.849854
v -101.127991 4.508093 -197.849762
v -94.325394 4.508093 -197.849808
v -87.522850 4.508093 -197.849808
v -80.720306 4.508093 -197.849808
v -75.618401 4.508093 -197.849762
v -121.535583 4.508093 -198.349762
v -114.733032 4.508093 -198.349762
v -107.930489 4.508093 -198.349884
v -101.127991 4.508093 -198.349762
v -94.325394 4.508093 -198.349838
v -87.522850 4.508093 -198.349838
v -80.720306 4.508093 -198.349838
v -75.618401 4.508093 -198.349762
vt -355.979004 74.709831
vt -129.201279 94.003601
vt -248.372894 36.864502
vt -246.962402 36.864502
vt -245.551987 36.864502
vt -244.141556 36.864502
vt -242.731140 36.864502
vt -241.320770 36.864502
vt -239.910370 36.864502
vt -239.910370 36.973637
vt -241.320770 36.973637
vt -242.731140 36.973637
vt -244.141556 36.973637
vt -245.551987 36.973637
vt -246.962402 36.973637
vt -248.372894 36.973637
vn 0.0000 1.0000 -0.0000
usemtl Material.012
s off
f 8/1/1 16/2/1 15/3/1 14/4/1 13/5/1 12/6/1 11/7/1 10/8/1 9/9/1 1/10/1 2/11/1 3/12/1 4/13/1 5/14/1 6/15/1 7/16/1
