# Blender v3.1.2 OBJ File: 'new_maze_obb.blend'
# www.blender.org
o wall_obb.090_Mesh.095
v 16.216003 4.508093 -121.321106
v 21.317890 4.508093 -121.321106
v 26.419840 4.508093 -121.321121
v 31.521683 4.508093 -121.321075
v 36.623676 4.508093 -121.321106
v 41.725517 4.508093 -121.321106
v 51.929375 4.508093 -121.321106
v 57.031284 4.508093 -121.321106
v 46.827469 4.508093 -121.321106
v 62.133194 4.508093 -121.321106
v 16.216003 4.508093 -121.821129
v 21.317886 4.508093 -121.821129
v 26.419840 4.508093 -121.821152
v 31.521683 4.508093 -121.821106
v 36.623676 4.508093 -121.821129
v 41.725517 4.508093 -121.821129
v 46.827469 4.508093 -121.821129
v 51.929375 4.508093 -121.821129
v 57.031284 4.508093 -121.821129
v 62.133194 4.508093 -121.821129
vt 59.880676 36.968224
vt 58.822872 36.968231
vt 57.765076 36.968224
vt 56.707268 36.968231
vt 55.649460 36.968224
vt 54.591660 36.968231
vt 53.533836 36.968224
vt 52.476048 36.968227
vt 51.418243 36.968227
vt 50.360451 36.968227
vt 50.360451 36.859306
vt 51.418243 36.859306
vt 52.476048 36.859314
vt 53.533836 36.859310
vt 54.591660 36.859310
vt 55.649460 36.859310
vt 56.707268 36.859310
vt 57.765076 36.859310
vt 58.822872 36.859310
vt 59.880676 36.859310
vn 0.0000 1.0000 0.0000
s off
f 1/1/1 2/2/1 3/3/1 4/4/1 5/5/1 6/6/1 9/7/1 7/8/1 8/9/1 10/10/1 20/11/1 19/12/1 18/13/1 17/14/1 16/15/1 15/16/1 14/17/1 13/18/1 12/19/1 11/20/1
