# Blender v3.1.2 OBJ File: 'new_maze_obb.blend'
# www.blender.org
o wall_obb.148_Mesh.153
v 157.368835 4.508093 -14.181011
v 160.770142 4.508093 -14.181011
v 164.171387 4.508093 -14.181011
v 167.572693 4.508093 -14.181011
v 169.273300 4.508093 -14.181011
v 153.967575 4.508093 -14.181011
v 153.967575 4.508093 -14.681039
v 157.368835 4.508093 -14.681039
v 160.770142 4.508093 -14.681039
v 164.171387 4.508093 -14.681039
v 167.572693 4.508093 -14.681039
v 169.273300 4.508093 -14.681039
vt -287.391663 -94.661850
vt -313.716492 -94.661728
vt 199.269272 282.570709
vt 199.975082 282.570709
vt 200.679977 282.570709
vt 201.384903 282.570709
vt 202.090668 282.570709
vt 202.090668 282.679810
vt 201.384903 282.679810
vt 200.679977 282.679749
vt 199.975082 282.679810
vt 199.269272 282.679810
vn 0.0000 1.0000 -0.0000
s off
f 5/1/1 12/2/1 11/3/1 10/4/1 9/5/1 8/6/1 7/7/1 6/8/1 1/9/1 2/10/1 3/11/1 4/12/1
