# Blender v3.1.2 OBJ File: 'new_maze_obb.blend'
# www.blender.org
o Well_Cube.002
v -181.878326 0.499929 11.044259
v -181.878326 0.499929 9.656902
v -180.494980 0.499929 11.044259
v -180.494980 0.499929 9.656902
v -180.873016 0.572132 13.619021
v -180.873474 0.519572 14.455910
v -182.029800 0.522002 13.616121
v -182.001068 0.491717 14.397492
v -181.619629 0.561911 9.573778
v -181.619629 0.561912 8.916158
v -180.725784 0.561912 8.916158
v -180.725784 0.561911 9.573778
vt 0.411775 0.915268
vt 0.450410 0.915268
vt 0.450410 0.953911
vt 0.411775 0.953911
vt 0.689909 0.731642
vt 0.717081 0.731642
vt 0.717598 0.759336
vt 0.689909 0.758820
vt 0.729077 0.334574
vt 0.751545 0.334574
vt 0.751545 0.357042
vt 0.729077 0.357042
vn 0.0000 -1.0000 -0.0000
vn 0.0355 -0.9980 -0.0517
s 1
f 2/1/1 4/2/1 3/3/1 1/4/1
f 6/5/2 8/6/2 7/7/2 5/8/2
f 10/9/1 11/10/1 12/11/1 9/12/1
