# Blender v3.1.2 OBJ File: 'new_maze_obb.blend'
# www.blender.org
o Well_Cube.001
v -174.854874 0.492310 13.780233
v -173.664062 0.492310 13.320800
v -172.779877 0.492310 14.681845
v -174.595779 0.492310 15.382437
v -172.830750 0.464534 12.522760
v -172.431320 0.464534 11.752929
v -170.900085 0.464534 12.290995
v -171.509186 0.464534 13.464913
v -173.428268 0.464534 13.151378
v -172.420349 0.464534 14.423492
v -172.429474 0.464534 9.708037
v -172.772644 0.464535 9.017389
v -171.420563 0.464535 8.119566
v -170.897278 0.464535 9.172737
v -172.346069 0.464534 11.466933
v -170.770111 0.464534 11.854881
v -172.258926 0.464534 10.604033
v -170.637207 0.464534 10.539041
v -172.940704 0.492311 8.787910
v -173.929413 0.492311 7.980683
v -173.184525 0.492311 6.538691
v -171.676880 0.492311 7.769634
v -175.060547 0.464535 7.649244
v -175.926849 0.464535 7.690381
v -176.230453 0.464534 6.096009
v -174.909393 0.464534 6.033279
v -174.216888 0.464535 7.850318
v -173.622894 0.464534 6.339896
v -177.696167 0.464535 8.715612
v -178.121109 0.464534 9.359179
v -179.576477 0.464535 8.640762
v -178.928467 0.464534 7.659386
v -176.216980 0.464535 7.760283
v -176.672852 0.464534 6.202602
v -177.006973 0.464535 8.118217
v -177.877502 0.464534 6.748416
v -178.240433 0.492310 9.633602
v -178.436005 0.492310 10.894897
v -180.056671 0.492310 10.982581
v -179.758423 0.492311 9.059230
v -178.146759 0.464534 12.043297
v -177.671356 0.464534 12.768683
v -178.890625 0.464534 13.839922
v -179.615570 0.464534 12.733779
v -178.402008 0.464534 11.214417
v -180.004807 0.464534 11.469817
v -175.889618 0.464534 13.772171
v -175.119415 0.464534 13.811392
v -174.999161 0.464534 15.429950
v -176.173645 0.464534 15.370141
v -177.463806 0.464534 12.983107
v -178.574127 0.464534 14.166897
v -176.759766 0.488526 13.474536
v -177.492142 0.464534 14.927433
vt 0.891748 0.080337
vt 0.919614 0.080337
vt 0.919614 0.108203
vt 0.891748 0.108203
vt 0.796921 0.078509
vt 0.810854 0.078509
vt 0.810854 0.106375
vt 0.796921 0.106375
vt 0.782988 0.078509
vt 0.782988 0.106375
vt 0.693309 0.077986
vt 0.699385 0.077986
vt 0.699385 0.104525
vt 0.693309 0.104525
vt 0.672846 0.077986
vt 0.686116 0.077986
vt 0.686116 0.104525
vt 0.672846 0.104525
vt 0.902154 0.216689
vt 0.926560 0.216689
vt 0.926560 0.241095
vt 0.902154 0.241096
vt 0.803623 0.214287
vt 0.814929 0.214287
vt 0.814929 0.236899
vt 0.803623 0.236899
vt 0.792316 0.214287
vt 0.792316 0.236899
vt 0.697879 0.213987
vt 0.703791 0.213987
vt 0.703791 0.239809
vt 0.697879 0.239809
vt 0.677969 0.213987
vt 0.690880 0.213987
vt 0.690880 0.239809
vt 0.677969 0.239809
vt 0.566863 0.217259
vt 0.592562 0.217041
vt 0.592779 0.242741
vt 0.567080 0.242958
vt 0.634901 0.316306
vt 0.647103 0.316306
vt 0.647103 0.340710
vt 0.634901 0.340710
vt 0.622699 0.316306
vt 0.622699 0.340710
vt 0.583409 0.075353
vt 0.589376 0.075353
vt 0.589376 0.101414
vt 0.583409 0.101414
vt 0.563314 0.075353
vt 0.576345 0.075353
vt 0.576345 0.101414
vt 0.563314 0.101414
vn -0.0000 -1.0000 0.0000
vn -0.0038 -1.0000 -0.0052
vn -0.0037 -1.0000 -0.0051
vn 0.0133 -0.9999 0.0002
vn -0.0075 -0.9999 -0.0103
s 1
f 1/1/1 2/2/1 3/3/1 4/4/1
f 5/5/1 6/6/1 7/7/1 8/8/1
f 9/9/1 5/5/1 8/8/1 10/10/1
f 11/11/1 12/12/1 13/13/1 14/14/1
f 15/15/1 17/16/1 18/17/1 16/18/1
f 17/16/1 11/11/1 14/14/1 18/17/1
f 19/19/1 20/20/1 21/21/1 22/22/1
f 23/23/1 24/24/1 25/25/1 26/26/1
f 27/27/1 23/23/1 26/26/1 28/28/1
f 29/29/1 30/30/1 31/31/1 32/32/1
f 33/33/1 35/34/1 36/35/1 34/36/1
f 35/34/1 29/29/1 32/32/1 36/35/1
f 37/37/1 38/38/1 39/39/1 40/40/1
f 41/41/1 42/42/1 43/43/1 44/44/1
f 45/45/1 41/41/1 44/44/1 46/46/1
f 47/47/2 48/48/1 49/49/1 50/50/3
f 51/51/4 53/52/4 54/53/4 52/54/4
f 53/52/5 47/47/2 50/50/3 54/53/5
